<svg width="0" height="0" class="hidden" xmlns="http://www.w3.org/2000/svg" xmlns:xlink="http://www.w3.org/1999/xlink">
  <symbol fill="none" xmlns="http://www.w3.org/2000/svg" viewBox="0 0 550 275" id="decor">
    <path d="M550 0a274.997 274.997 0 01-80.546 194.454 274.996 274.996 0 01-388.908 0A274.998 274.998 0 010 0h550z" fill="#FFF6ED"></path>
  </symbol>
  <symbol fill="none" xmlns="http://www.w3.org/2000/svg" width="375" height="288" viewBox="0 0 375 288" id="img-01">
    <path fill-rule="evenodd" clip-rule="evenodd" d="M94.55 172.924c1.909-1.294 5.813-5.927 7.858-6.998 4.549-2.381 24.813-7.061 25.472-7.338 1.003-.421 7.522-1.892 11.32-2.822 8.919-2.183 40.88-16.286 49.305-19.902 1.075 2.815 9.953 15.242 8.43 16.515-5.014 4.193-14.002 9.414-19.811 12.418-4.698 2.43-9.674 4.441-14.697 6.083-5.704 1.865-9.618 3.864-15.303 5.771-5.592 1.876 1.092 7.745 3.964 8.957 3.221 1.361 8.21 2.051 11.502 3.23-5.795 8.959-10.662 19.833-11.636 30.565-.234 2.582-2.213 4.95-5.433 4.177-1.661-.399-16.99-2.43-19.489-2.997-16.686-3.785-46.641-23.607-38.927-43.932 1.767.812 5.801-2.613 7.444-3.727z" fill="#FF7A00"></path>
    <path fill-rule="evenodd" clip-rule="evenodd" d="M103.884 65.085c1.247-.105 4.47-2.582 2.778-3.834-1.706-1.264-2.932 2.971-2.778 3.834zm-64.934 9.5c.326-.058.183-1.832-.33-2.058-1.619-.715-1.755 1.972-1.795 2.692-.05.907-.164 3.464 1.805 2.763 1.118-.398.424-2.718.32-3.398zm95.592 8.285c-.044 1.584 3.172 4.628 4.37 2.802 1.009-1.534-4.287-5.953-4.37-2.802zM20.856 47.164c.932 2.364 5.54-.858 5.71-2.592.352-3.551-5.758.23-5.71 2.592zm38.44 10.192c2.146-.175 4.97-2.889 7.039-3.903 1.4-.686 5.21-1.503 5.624-3.06.36-1.354-6.104 1.543-6.656 1.8-2.536 1.182-4.822 2.529-6.007 5.163zm161.082-18.712c1.71-1.315 3.789-2.164 5.981-2.108 1.095.027 3.379.709 3.465-1.175.14-3.062-9.529.673-11.04 1.274l1.594 2.01zM113.686 157.988c-1.255-2.073-3.512-3.271-5.209-5.039.622 2.903-.78 5.486-1.743 8.136l6.952-3.097zm217.887 44.181c.691-2.301 1.383-4.59 2.192-6.857.905-2.538 1.354-2.758-.811-4.532l-5.391 10.136c1.279.541 2.614 1.067 4.01 1.253zm-185.99-166.63c-2.379-2.668-13.53-2.836-12.15 3.052.481 2.056 3.223-.128 4.94-.608 1.705-.475 6.531-.538 7.21-2.445zm-.409 37.769c-.288-.681-.864-3.139-1.719-3.332-.832-.189-4.118 2.389-4.735 2.782-3.081 1.963-6.084 4.076-9.086 6.157 1.15 0 2.194-.407 3.336-.416 1.358-.011 2.331.544 3.655.227 2.844-.68 6.145-3.814 8.549-5.418zm3.082-60.873c.267-1.22 14.209 2.443 15.885 3.114.912.365 5.623 2.8 4.61-.87-.576-2.091-6.018-3.685-7.763-4.258-4.434-1.455-9.109-2.49-13.83-2.25-.917.046-7.86.444-4.961 3.22.999.956 4.58.655 6.059 1.044zm3.052 167.652c2.598 1.271 5.25 2.243 7.965 3.237 1.206.442 3.085 1.598 4.415 1.308 1.09-.239 1.439-1.889 2.012-2.994 2.093-4.043 4.592-7.304 7.691-10.637-1.439-1.044-8.743 3.561-10.551 4.241a79.043 79.043 0 00-5.288 2.179c-1.667.765-4.957 1.45-6.244 2.666zm45.992-34.46c3.785-1.704 7.373-4.725 10.478-7.431 3.565-3.106 6.761-6.362 9.37-10.381-1.57.079-5.037 5.104-5.076-.366-.02-2.791 3.824-5.54 5.018-8.128-2.969-1.667-5.689 8.294-9.095 5.879-3.281-2.326 1.896-10.325 2.893-12.848-1.924-1.274-12.889 12.982-14.476 14.806-.992 1.142-3.34 2.662-3.9 3.994-.334.793-.381 3.309-.22 4.038.336 1.525 2.037 3.352 2.794 4.772.959 1.798 1.793 3.666 2.214 5.665zm156.499 51.398c-3.274-4.597.108-6.601 2.769-10.416 2.129-3.052 4.088-6.415 5.437-9.823 3.375-8.524 6.421-16.448 8.088-25.464-2.294 1.042-3.728 5.006-4.876 7.095-1.543 2.808-2.901 5.756-4.616 8.477-3.209 5.091-6.36 10.522-10.442 14.935-1.85 2-3.416 4.25-5.55 6.052-.975.824-2.84 1.499-3.559 2.529-.678.972.081 1.593-.177 2.754-.264 1.191-1.475 2.461-1.995 3.608-.683 1.506-1.318 3.016-2.08 4.489-.831 1.606-1.058 2.446-1.282 4.016-.245 1.716.506 1.895-1.001 3.476l8.192 3.593 2.765 1.213.583-1.087c.75-.724 1.44-2.512 1.869-3.47 1.795-3.996 3.821-8.009 5.875-11.977zm-263.7-19.295c-7.755 20.306 19.493 37.404 36.265 41.185 2.324.524 4.591 1.209 6.903 1.772 2.522.613 4.761.49 7.278.747 2.002.204 2.957 1.743 4.843 2.167 3.153.709 2.961-1.649 3.187-4.174.957-10.708 6.451-21.04 12.266-29.975-2.656-.946-5.288-1.977-7.91-3.012-2.244-.886-5.68-3.377-8.092-3.508-1.784-.097-4.503 1.418-6.235 2.083-2.886 1.108-5.78 2.051-8.787 2.807-5.259 1.32-11.111 3.121-16.553 3.257-1.569.04-5.873.766-7.002-.198-2.152-1.839.836-3.372 2.638-4.028 10.741-3.913 22.145-5.576 32.916-9.587 5.543-2.065 11.028-4.37 16.606-6.404 4.808-1.753 9.844-3.305 14.49-5.461 6.136-2.847 12.298-6.393 17.612-10.571 1.064-.836 3.292-2.078 4.021-3.289.642-1.067.561-.003.428-1.296-.096-.929-1.238-2.188-1.708-3.065-1.751-3.272-3.334-6.633-4.664-10.095-8.476 3.616-16.539 8.538-24.89 12.402-8.406 3.891-17.887 6.635-26.879 8.823-3.828.932-8.227 1.226-11.737 3.067-1.492.782-2.966 1.686-4.563 2.139-.472.9-.936 1.076-1.394.529-.287-.32-.657-.455-1.112-.406-.977.165-1.973.624-2.887.977-4.625 1.783-9.053 4.016-13.444 6.295-2.08 1.079-4.215 2.142-6.207 3.375-1.067.661-2.024 1.328-2.897 2.235-1.048 1.088-.798 1.983-2.493 1.209zM264.576 57.165c1.96.032 3.746-1.024 5.789-.965 3.213.092 5.757 2.57 7.622 4.96 3.69 4.728 2.749 10.432.895 15.724a30.526 30.526 0 01-3.626 7.17c-1.347 1.96-3.755 3.814-4.695 5.996-1.551 3.599 1.577 2.069 3.493 1.3 2.408-.967 4.665-2.17 6.709-3.789 9.11-7.217 16.04-17.248 18.362-28.77 1.132-5.62 1.045-12.191-2.891-16.779-3.599-4.195-9.811-5.565-15.122-4.788-5.74.842-10.943 3.26-15.617 6.373-1.358.905-2.601 1.893-3.875 2.904-1.673 1.328-2.675 1.362-2.257 3.443.311 1.546 1.158 3.149 1.703 4.633 1.022 2.78.649 3.498 3.51 2.588zm6.248 47.919l-.397.674c2.733.129 5.279-2.269 7.608-3.44 3.025-1.522 5.712-3.597 8.363-5.694 4.675-3.697 9.411-7.863 12.891-12.717 7.801-10.88 14.887-24.675 12.758-38.47-2.294-14.867-15.367-20.59-29.297-18.622-6.277.887-11.882 3.675-17.5 6.506-2.832 1.426-5.222 3.277-7.816 5.069-1.346.93-2.575 1.051-2.663 2.677-.066 1.226 2.064 3.998 2.64 5.108 7.054-7.157 14.656-13.079 25.308-13.445 12.673-.435 20.167 11.518 20.112 22.963-.055 11.225-4.922 22.023-12.681 30.09-3.526 3.667-6.888 6.608-11.217 9.284-2.159 1.334-3.751 2.532-6.164 3.417-1.707.627-1.529.297-1.965 1.869-.37 1.333.008 3.346.02 4.731zM201.962 257.59c-.165 2.022-.578 4.014-1.038 5.987-.165.709-1.095 2.945-.932 3.742.269 1.317-.089.47 1.07 1.157 1.21.717 2.618.674 3.943.891.817.135 3.813 1.537 4.317 1.316.881-.387.853-1.752 1.819-2.293 1.317-.738 3.257-.106 4.499.471 3.321 1.54 5.603 4.73 8.816 6.476 5.706 3.1 12.478 4.816 18.844 5.524 3.449.384 6.978 1.057 10.384.253 2.683-.633 6.171-.575 7.63-3.439-12.964-3.546-32.751-7.886-37.877-22.685-2.786 2.513-7.443 1.16-10.81.813-3.705-.382-7.015-.293-10.403-1.972a15.284 15.284 0 00-.262 3.759zM87.18 165.935c6.103.366 11.888-2.506 15.644-7.353.924-1.194 1.872-2.412 2.427-3.827l.361-1.075c.583-.99.327-1.457-.765-1.401-.615-.84-2.176-1.122-1.732-2.644.334-1.148 1.568-1.167 2.64-1.528-.534-.892-.853-1.34-1.617-2.134-1.987 1.778-5.591 5.266-6.987 1.183-.67-1.96.51-3.834.217-5.725-.12-.782-1.117-2.78-1.695-3.247-3.076-2.492-7.507-1.46-10.771.006-2.25 1.011-2.734 1.485-3.1 3.802-.373 2.356-.72 4.711-1.133 7.061 1.35-.7 1.596-2.212 2.476-3.3l.99 1.792c.465-.259.9-.246 1.302.042.651.996.241 2.473.041 3.517 2.172-.201 3.09 2.21.9 3.186-2.268 1.011-3.291-1.746-3.368-3.532-.847 1.006-1.716.468-2.306.984-.59.517-.822 1.594-1.031 2.773-.345 1.937-1.227 4.733-.41 6.676 1.21 2.887 5.074 4.389 7.917 4.744zM264.017 73.21c-2.019 2.794-5.461 6.45-6.182 9.825 2.225-1.298 6.927-7.545 8.138-2.57.696 2.857-2.871 6.26-3.747 9.026 3.507-1.147 6.006-4.742 8.194-7.517 2.791-3.538 5.64-8.201 6.352-12.7.576-3.64-1.962-7.033-5.734-7.39-1.927-.182-3.939.122-5.801.567-.849.202-2.115.453-2.873.906-.951.568-1.081 1.898-1.977.792l-3.572 6.695c1.185-.428 3.603-2.243 4.898-2.055 1.891.275 2.279 3.006 2.304 4.421zM74.951 18.567c-5.294.155-10.827 1.277-15.839 2.944-1.244.414-6.495 1.887-5.389 4.023.731 1.412 4.671-.583 5.862-.915 5.106-1.427 10.362-2.367 15.591-3.225 1.266-.208 5.561-.188 5.783-1.838.272-2.015-4.513-.991-6.008-.989zm144.076 229.758c-2.87.349-5.625.219-8.497-.131-2.417-.294-4.879-1.279-7.284-1.279 0 2.561-.174 2.577 2.542 3.125 1.896.383 3.819.598 5.735.865 3.373.469 7.118 1.786 10.532 1.109-.082-.445-.344-3.446-.698-3.743-.199-.166-2.041.057-2.33.054zM172.651 58.852c.803.508 2.647 2.536 3.603 2.572-.341-2.348-2.974-6.435-5.998-4.984-.741.355-2.298 2.127-1.593 2.908.375.418 3.005-.493 3.988-.496zm-27.975 20.884l.089-1.228c-1.109.65-2.483.956-3.271 2.002l2.839 1.253.343-2.027zm87.381 62.326c5.243 1.826 10.048 4.265 13.907 8.405 3.336 3.58 4.903 9.887 5.717 14.58 2.015 11.612-1.873 22.375-4.436 33.483-1.3 5.635-3.242 11.058-5.059 16.547-1.588 4.794-2.948 9.814-5.139 14.372-1.858 3.865-4.231 7.675-5.865 11.684-.879 2.158-2.304 9.562-5.642 7.237-.911 2.369-1.132 2.167-.158 3.812.704 1.191 3.095 2.845 4.223 3.815 3.006 2.585 6.813 4.716 10.339 6.526 6.459 3.316 13.382 5.797 20.034 8.82 2.941 1.337 6.129 2.917 5.469 6.743-.552 3.208-2.418 5.641-5.328 7.068-2.733 1.34-6.641 2.375-9.647 2.795-1.784.25-2.193-.488-3.647-.744-1.618-.283-3.507.265-5.176.251-7.495-.065-14.056-1.941-20.113-6.263-2.164-1.545-5.349-5.736-8.182-5.736-1.447 0-1.142.875-2.415 1.389-1.572.633-4.28-.562-5.825-.843-3.291-.598-6.639-1.205-8.831-4.025-2.369-3.047-1.527-6.823-.509-10.207 1.148-3.815 3.08-7.686 3.9-11.559.2-.942.384-2.698.182-3.656-.316-1.488-1.826-2.375-1.871-3.985-.014-.49.691-1.136.814-1.642.272-1.11.23-2.262.342-3.392.2-2.016.662-3.947.981-5.94.725-4.533 2.154-8.578 3.538-12.946 1.342-4.239 2.619-7.394 5.214-11.065 1.344-1.901 5.838-8.674 3.643-10.623-3.003 5.869-6.516 10.446-11.113 15.118-3.516 3.574-6.953 8.378-11.354 10.923-4.838 2.799-10.751 4.445-16.094 5.925-2.541.703-4.649 2.264-7.389 2.553-2.969.312-5.99-.057-8.898-.715-.819-.185-3.179-1.436-3.92-1.357-1.091.118-2.661 2.053-3.858 2.408-2.915.865-4.905-.787-7.116-2.314-2.399-1.657-3.125-2.069-5.893-2.268-3.391-.244-6.689-1.433-10.024-2.161-5.865-1.28-10.849-3.874-16.179-6.589-6.11-3.111-11.337-7.402-15.942-12.472-6.77-7.452-16.199-28.103-5.14-35.334-6.51-.879-12.473-3.708-13.267-11.037-.414-3.836.366-8.085 1.336-11.782.443-1.688.97-3.366 1.475-5.036a3.44 3.44 0 00.604-1.853c.233-.869-.103-1.302-1.01-1.298-1.716-1.995-3.005-3.755-3.351-6.587-.11-.897-.207-2.273.435-3.036a2.195 2.195 0 011.074-.615c1.005.057 1.289-.435.852-1.477.488-1.476-.236-2.626 1.603-3.242.59.125 1.176.262 1.76.409.746.339 1.231.093 1.457-.733 1.732-.674.933-1.671 3.287-.804a10.22 10.22 0 013.817 2.531c1.302-.831-1.658-5.966-1.757-7.605-.234-3.862 1.372-7.055 3.46-10.228 4.06-6.165 9.726-11.466 15.314-16.236 10.703-9.135 21.946-17.83 34.032-25.109-4.986-3.444-10.81-4.377-16.743-2.777-5.468 1.476-9.901 4.156-14.935 6.5-4.664 2.172-9.614 3.064-11.101-2.86-1.666-6.638 3.649-9.101 8.417-12.077-1.19-.884-5.11-.252-6.592-.148-3.302.233-6.46.974-9.668 1.63-1.54.314-2.953.243-4.477.551-2.267.458-4.633.97-6.926 1.622-5.456 1.552-10.87 3.907-15.584 7.081-4.074 2.742-6.901 6.613-10.184 10.179-3.743 4.065-7.33 8.065-12.88 9.553-2.599.697-5.648 1.33-7.49-.979-1.714-2.147-1.81-4.734-1.753-7.36.123-5.798 2.94-12.064 6.215-16.802 3.556-5.143 8.318-8.089 12.818-12.228-6.504.462-12.79 3.872-18.77 6.23-1.26.496-2.53 1.053-3.796 1.512-1.349.49-2.243.19-3.536.414-2.95.513-5.485 1.75-8.355-.223-5.43-3.73.01-11.32 3.749-13.648 5.207-3.244 10.505-5.974 16.242-8.288-3.106-3.35-.453-8.133 2.41-10.51 3.621-3.008 8.234-4.732 12.599-6.342 3.451-1.274 6.841-2.497 10.427-3.263 3.77-.806 8.177-2.036 12.002-1.918 3.587.11 6.768-.518 10.401-.619 3.023-.083 6.053-.011 9.075-.089 8.132-.209 16.295.337 24.242.918-6.297-18.316 35.181-12.66 44.03-10.267 8.042 2.174 17.256 4.697 24.011 9.856 2.862 2.185 5.58 4.67 8.119 7.22 3.746 3.761 5.82 8.687 7.801 13.55 5.026-2.45 9.831-5.118 15.33-6.332 5.233-1.155 10.593-2.72 15.856-3.594 4.001-.663 9.809-1.113 13.177 1.697 3.658 3.053 5.563 7.803 7.747 11.872 10.485-9.897 22.18-17.117 37.13-16.637 14.629.47 24.248 13.036 26.022 26.653 1.953 15.004-4.766 30.682-13.874 42.302-4.084 5.21-8.31 10.243-13.807 14.131-2.726 1.927-5.602 4.038-8.591 5.543-1.49.75-3.12 1.427-4.685 2.005-.706.26-1.433.522-2.167.698-2.097.506-1.69-.169-2.47 1.657-.633 1.483-.555 4.033-.826 5.661-.31 1.859-.494 3.745-.946 5.579-.783 3.18-1.599 6.282-2.58 9.387-1.857 5.877-4.356 11.8-7.418 17.161 2.597 1.122 6.232 1.235 9.007 1.575 3.003.367 6.01 1.14 9.13 2.008 6.25 1.738 11.835 3.205 17.779 5.808 6.171 2.702 11.67 6.736 17.611 9.947 5.464 2.953 10.987 6.652 16.061 10.196 1.207.844 1.955 1.577 2.916 2.645.983 1.091 1.296 1.304 2.47 2.25.53.426 2.071 2.575 2.676 2.654 1.083.143.917-.661 1.767-1.784 1.775-2.344 4.252-4.16 6.015-6.563 1.47-2.004 3.004-4.033 4.576-5.757 3.804-4.17 6.956-8.793 9.66-13.792 1.408-2.603 2.89-5.08 4.418-7.536 1.522-2.446 4.227-5.674 7.258-5.529-.244-1.245-1.018-1.453.318-2.214.86-.491 2.535.3 3.199.798 1.757 1.319 1.833 3.879 1.722 5.802-.285 4.955-1.327 9.846-2.78 14.531-1.746 5.632-3.935 10.601-6.324 15.977-1.901 4.282-4.263 9.945-8.994 11.899 3.177 4.514 1.651 8.191-.473 12.983-1.552 3.503-3.603 7.123-6.726 9.441-3.52 2.613-7.338.396-11.02-1.331-2.224-1.043-9.024-3.506-7.641-6.716-1.699-.226-2.767-1.453-4.313-1.831-1.637-.4-1.356.261-3.088.509-1.328.19-3.314-.992-4.565-1.416-2.088-.706-4.171-1.431-6.256-2.146-5.871-2.011-11.642-3.991-17.571-5.603-11.03-2.998-22.197-4.698-33.188-7.375-2.204-.537-4.394-1.055-6.688-1.485-.474-.088-2.932-.225-3.231-.729-.523-.884 1.085-5.83 1.223-6.838.906-6.618.61-13.862-.666-20.404-.53-2.72-2.897-6.241-2.877-8.896.014-1.781 1.601-3.725 2.532-5.339 2.304-3.988 4.718-8.297 6.425-12.448 2.613-6.35 4.213-13.518 5.368-20.318.601-3.546 1.3-7.389 1.464-10.975.125-2.734-.101-5.602.298-8.402-1.521.144-3.673.928-5.043.089-1.73-1.06-2.195-4.083-1.974-5.889-5.924 1.029-5.727-4.56-5.36-8.93-10.707 0 3.004-15.824 4.718-19.223.787-1.562.763.193.416-2.224-.153-1.062-.883-2.239-1.296-3.215a104.433 104.433 0 00-2.911-6.3 119.793 119.793 0 00-7.397-12.66c-2.443 1.693-4.645 3.697-6.685 5.848 1.309-3.405 5.308-7.623 3.597-11.488-1.585-3.584-6.879-3.336-10.006-2.68-8.497 1.781-16.645 4.377-24.74 7.381 2.508 1.43 6.346.326 8.838-.768 3.084-1.354 6.402-2.775 9.726-3.493 2.9-.625 6.708-.412 5.87 3.473-.679 3.148-3.774 6.18-5.817 8.533-4.499 5.185-10.141 9.199-15.683 13.21-5.958 4.311-11.698 8.996-17.731 13.182-10.905 7.569-22.631 14.147-33.898 21.211-5.855 3.67-12.489 6.625-18.839 9.345-6.984 2.993-13.681 6.197-20.928 8.561-4.024 1.313-8.013 2.394-11.967 3.888-2.479.936-6.795 2.811-8.433.032-3.326-5.645 8.71-13.07 12.009-16.521 2.275 2.198-8.946 10.389-8.067 13.59.69 2.515 3.359-.733 4.648-1.418 2.082-1.108 4.549-1.665 6.643-2.929 4.293-2.593 9.384-5.583 10.364-10.943-.682-.716-.674-1.377.026-1.983.311-.369.558-.773.74-1.214.305-.842.428-1.897.591-2.79.484-2.64-.73-5.112.404-7.695-6.617 4.987-12.977 10.62-19.258 16.02-5.634 4.842-11.513 11.183-13.584 18.409-.265.926-.706 1.976-.657 2.954.094 1.918.286 1.504 1.84 2.121s3.817.564 5.488.629c.952.037 5.206-.966 4.36 1.113-.487 1.199-3.436 1.153-4.492 1.264-2.65.278-4.087-.007-2.832 2.85.563 1.28 1.703 2.148 2.598 3.139 2.489 2.758 3.841 6.987 5.799 10.226 2.231 3.691 4.683 7.201 7.288 10.638 1.075 1.418 2.513 4.084 4.003 5.096 1.392.945-.246.867 2.066.483 1.008-.167 1.921-.819 2.885-1.053a417.324 417.324 0 0017.647-4.694c7.623-2.205 15.623-4.086 22.897-7.261 6.516-2.845 12.983-6.233 19.567-9.114 1.923-.841 3.843-1.399 5.338-2.946 1.803-1.868 3.297-4.314 4.96-6.322 2.83-3.416 5.438-6.889 8.483-10.126 2.267-2.409 6.285-6.886 9.483-7.847 6.077-1.826 2.824 7.381 2.039 9.708 1.429.323 2.179-1.5 3.856-.976 2.007.628 2.215 3.284 2.466 4.948.067.443-.536 1.272-.353 1.667.063.135 1.372.906 1.625 1.263.917 1.297.737 2.874.389 4.273-1.798 7.247-8.191 12.538-12.892 17.884 2.103-.396 3.663-1.588 5.648-2.179 1.864-.555 3.737-.526 5.615-.685 1.967-.166 3.856-.898 5.868-.935 2.111-.039 4.132.559 6.226.796z" fill="#000"></path>
    <path fill-rule="evenodd" clip-rule="evenodd" d="M9.707 76.881c-1.16.754-1.486 1.494-1.526 3.233-.016.713.033 3.373 1.035 3.273.94-.094.49-5.59.49-6.506zm-5.989 4.334c.54-5.574 2.59-11.24 7.412-14.713 1.193-.859 2.542-.828 3.849-1.37.786-.326 2.027-1.839 2.918-1.66 3.283.66-.51 5-1.065 6.141-1.721 3.536-1.605 6.643-1.554 10.458.04 2.899.645 7.787-.824 10.41-1.566 2.795-4.964.98-6.86-.673-2.393-2.088-4.2-5.413-3.876-8.593zm57.627 16.47c0 3.11 2.538 1.004 2.447-1.208-.132-3.257-2.565-1.251-2.447 1.208zm13.491-17.193c-2.777 2.485-4.92 3.879-5.455 7.7-.405 2.893-.002 5.76.015 8.674.029 4.886-3.938 10.023-8.206 4.422-3.114-4.085-1.997-10.509.542-14.615 1.332-2.154 3.234-4.285 5.431-5.627 1.653-1.01 6.302-2.999 7.673-.554zm-38.787 75.305c-.322.757-1.078 3.851.464 3.152 1.362-.619.48-2.67-.464-3.152zm-8.15-9.553c-.237-1.163-.14-8.457 1.88-7.91 1.586.429 1.848 4.163 2.494 5.462 2.406 4.838 7.93 7.851 9.835 12.845 2.126 5.577-4.302 5.751-7.713 3.492-4.039-2.674-6.376-9.222-6.495-13.889zm-4.95-29.905c.876-1.177.965-1.806.465-2.847-.639.691-.526 1.678-.465 2.847zm.634 5.266c-4.57.509-4.798-7.867-4.016-10.743.623-2.291 1.963-4.752 3.342-6.618.279-.377 2.92-3.761 3.438-3.769 1.988-.031 1.442 2.202 1.227 3.034-.675 2.619-.942 4.809-.76 7.713.194 3.108 1.674 10.486-3.231 10.383zm207.47-72.54c-6.534 5.45-12.737 11.351-19.842 16.119-3.476 2.333-7.11 4.397-10.579 6.768-1.767 1.208-3.57 2.289-5.53 3.177-1.731.784-2.863.886-1.426-.976.96-1.243 3.112-2.11 4.42-2.993 2.013-1.362 3.914-2.872 6.032-4.08 3.733-2.13 7.443-3.85 10.884-6.462 3.054-2.318 6.205-4.582 9.12-7.046 1.25-1.056 5.395-5.906 6.921-4.507zm.131 19.681c2.939 2.5-4.413 9.35-6.089 10.901-1.768 1.638-3.715 3.098-5.638 4.548-.677.511-4.37 3.93-5.307 3.654-1.849-.545.579-2.763 1.21-3.34 2.042-1.874 4.128-3.691 6.124-5.615 1.801-1.732 3.75-3.337 5.492-5.126 1.41-1.45 2.595-3.905 4.208-5.022zM13.495 169.528c-.767-1.768-2.141.195-1.445 1.078.66.836 1.347-.738 1.445-1.078zm-4.498-3.492c.41-2.6 1.361-4.045 3.813-1.826 1.685 1.525 5.074 5.862 4.753 8.226-.422 3.101-3.856 2.221-5.636.6-1.824-1.662-2.63-4.694-2.93-7zm5.373 51.174c-3.004-.227-5.567-2.521-6.842-5.21-1.074-2.261-2.09-5.905 1.681-4.717 2.458.775 11.932 10.292 5.161 9.927zm36.406-14.74c-2.322.526-4.618-.994-6.045-2.709-.889-1.069-2.956-4.813-1.914-6.354 1.452-2.15 3.643 2.171 4.4 3.026 1.186 1.34 5.064 3.902 3.559 6.037zM52.867 144c-1.82-.84-3.51-1.851-4.241-3.857-.466-1.278-.857-5.11 1.21-5.092 2.39.021 7.865 8.565 3.03 8.949zm-12.758-39.863c2.436-.044 3.013 1.293 3.352 3.213.23 1.303 1.346 5.728.187 6.634-1.656 1.295-4.29-1.672-4.823-2.837-1.098-2.399.42-4.757 1.284-7.01zm41.867 132.665c1.186.537 3.885 1.727 2.854 3.575-1.079 1.932-4.175.055-5.331-.79-.484-.353-3.56-2.667-3.432-3.443.272-1.649 4.512.503 5.909.658zM3.814 116.139c.81 2.019 1.723 8.956-2.546 5.21-1.303-1.143-1.5-2.571-1.05-4.141.649-2.274 1.593-1.823 3.596-1.069zm226.232-25.834c-.946-1.921 1.388-3.16 2.635-4.398.815-.81 4.239-5.195 5.361-4.948 2.309.51-6.861 8.49-7.996 9.346zM40.078 229.459c2.227-.356 2.747 2.105 4.182 3.178.616.46 2.728.865 2.303 1.842-1.116 2.565-6.594-3.296-6.485-5.02zm18.81-58.127c1.53-.637 5.95 2.787 4.68 4.267-1.896 2.213-4.572-3.056-4.68-4.267zm32.272 49.544c-1.116.11-5.826-1.363-4.08-3.334 1.225-1.385 4.48 2.08 4.08 3.334zm-56.4-9.461c-1.108.44-5.104-.466-3.848-2.192 1.197-1.644 3.85.827 3.848 2.192zm32.715 7.447c1.296-.133 2.232.644 2.454 1.959-1.62.23-2.12-.153-2.454-1.959zM235.96 27.86l1.636.009-1.636-.008zm-8.588 113.291l-2.454.003 2.454-.003zM115.788 8.542l-.114 2.441c.037-.815.075-1.628.114-2.44zm253.408 138.305c.261.906-.121 1.056-1.148.45l1.148-.45zm-23.231 70.98l1.227.008-1.227-.008zm-77.699-65.478c-.686.52-1.368.593-2.044-.027l2.044.027zm-15.309-69.366zm35.347-62.766c-.681 0-1.363 0-2.044-.002.682-.254 1.364-.17 2.044.002zM88.332 11.94l-2.045.12 2.045-.12zm16.766.13l-1.636-.14 1.636.14zm8.997.644c-.545.203-1.09.323-1.636.003l1.636-.003zM65.43 13.828c-.681.138-1.363.276-2.044.412.682-.136 1.363-.274 2.045-.412zM253.368 179.39l-.056 1.22.056-1.22z" fill="#000"></path>
    <path fill-rule="evenodd" clip-rule="evenodd" d="M28.001 146.441l.023.813c-.009-.272-.015-.543-.023-.813zm343.728-1.46l-2.045.011c.68-.505 1.362-.441 2.045-.011zm-139.859-2.88l-1.636-.269 1.636.269zM82.197 236.74l-2.044-.396 2.044.396zM219.825 120l-.037-1.22.037 1.22zM90.376 12.076l-1.227-.151 1.227.15zm67.067-10.061l-1.227-.37 1.227.37zm48.664 274.367l.818.05-.818-.05zM18.402 57.95l1.227.032-1.227-.032zm274.401-37.336l-2.045-.143 2.045.143zM77.29 18.71l-2.863.005 2.863-.006zm193.206 83.798c.012.679.026 1.358.039 2.034-.012-.679-.024-1.357-.039-2.034zM220.42 248.149l-1.636-.026c.548.007 1.092.017 1.636.026zm58.07-215.528l2.453-.27c-.785.69-1.633.23-2.453.27zm-62.568 215.741l-1.227-.046 1.227.046zm-14.14 7.096l.062 2.034-.062-2.034zM264.177 57.6l1.636-.152c-.498.383-1.082.16-1.636.152zM85.469 165.817l1.636.298-1.636-.298zm85.06-107.036c.681-.576 1.362-.514 2.045-.006-.682.001-1.363.004-2.045.006zM144.94 79.322c.02-.271.039-.543.06-.814-.019.272-.039.543-.06.814zm119.024-7.729l.017 1.627-.017-1.627zM83.54 156.623c.898.302 2.702 1.216 3.748 1.095.837-.097 1.527-1.109 2.334-1.108 2.174.003 1.77 2.502.72 3.844-2.84 3.629-9.186-.306-6.802-3.831zm8.872-13.03c2.963.761 1.487 7.247-1.004 7.692-2.934.526-3.445-4.747-2.866-6.654 1.51.893.575 4.076 2.478 3.196 1.21-.56 1.026-3.149 1.392-4.234z" fill="#000"></path>
  </symbol>
  <symbol fill="none" xmlns="http://www.w3.org/2000/svg" viewBox="0 0 375 288" id="img-02">
    <path fill-rule="evenodd" clip-rule="evenodd" d="M116.903 130.807l4.094 41.312 22.287-12.711v39.617c0 .729-.433 3.236 0 3.868.368.535 3.09.551 3.733.641 4.201.588 8.411 1.111 12.628 1.576 11.112 1.227 23.006 2.984 34.162 1.575 9.696-1.226 19.096-4.673 27.955-8.684a154.266 154.266 0 009.188-4.526c.638-.341 2.954-1.148 3.301-1.843.284-.568-.381-2.563-.47-3.16l-1.123-7.548-5.229-35.136 9.877 9.859c.774.772 2.243 2.965 3.314 3.307.785.251 2.729-.526 3.505-.675l16.777-3.232c1.303-.251 4.24-.241 5.338-1.028.592-.424.619-1.286.828-2.103l4.092-16.023c.246-.963 1.617-3.996 1.268-4.965-.125-.347-.73-.584-1.1-.811l-25.322-15.459-13.872-8.468c-1.937-1.183-4.316-3.313-6.511-3.975-1.362-.41-3.344-.103-4.754-.143l-8.595-.245c-.448-.013-2.019-.332-2.397-.068-.314.22-.184.526-.287 1.05-.252 1.279-.254 2.659-.378 3.958-.099 1.042.098 2.953-.371 3.896-.301.603.08.363-.326.655-.484.347-2.027.235-2.603.302l-8.422.977c-3.338.388-6.713 1.115-10.066.78-5.084-.507-10.565-.482-15.557-1.552-1.297-.279-1.764-1.01-2.765-2.008-1.953-1.95-3.887-3.922-5.862-5.85-.967-.945-.553-.785-1.551-.427-1.25.449-2.518 1.534-3.65 2.222l-13.008 7.92-26.471 16.117-1.657 1.008z" fill="#FF7A00"></path>
    <path fill-rule="evenodd" clip-rule="evenodd" d="M370.099 132.519c-5.457 20.707-16.432 43.285-38.543 49.886-5.376 1.604-10.605 2.816-16.189 2.205-.531-.059-.976.016-1.481.026-.906.017-.124.342-1.14.029-.792-.245-1.532-.856-2.358-1.126-2.194-.718-4.533-.856-6.763-1.436a175.025 175.025 0 01-16.434-5.148c-2.5-.925-4.797-2.214-7.149-3.453-2.39-1.259-4.923-2.041-7.34-3.196-1.911-.913-5.183-2.103-6.526-3.816-1.432-1.826.549-5.714 1.116-7.656 1.925-6.607 4.219-13.117 5.666-19.855 4.998 5.789 11.935 9.374 19.116 11.687a71.401 71.401 0 0011.957 2.729c3.68.515 7.649 1.139 11.338.408 2.784-.553 6.279-1.832 8.268-3.956.709-.759 1.561-2.149 1.163-3.25-.505-1.398-1.976-.74-2.771-1.784-.694-.909-.585-3.035-.806-4.141a43.295 43.295 0 00-1.583-5.75c-1.272-3.662-2.858-7.331-3.238-11.227-.33-3.38.44-6.576 2.127-9.509.797-1.387 2.799-5.159 4.753-5.002 2.146.172-.748 9.21-.842 11.054-.375 7.309.606 15.097 4.358 21.503 1.437 2.453 3.515 5.309 6.582 5.613 3.249.321 5.87-2.234 7.417-4.819 3.773-6.307 1.871-14.963-.04-21.573-2.345-8.111-8.464-13.702-12.333-20.986 5.777.58 8.87 4.248 11.835 8.901 3.264 5.123 5.804 11.274 7.057 17.235.633 3.012.196 6.036.2 9.077.001 1.011.001 4.738 1.649 4.591 1.762-.157 2.366-4.36 2.625-5.643.593-2.942 1.236-5.884 1.752-8.84.912-5.23 1.318-10.587 2.411-15.781.184-.878.552-3.314 1.867-2.656 1.014.507.851 4.274.888 5.15.091 2.158.219 4.316.237 6.476.026 3.202-.613 6.516-.3 9.698.205 2.08 1.321 4.377 2.706 1.573 1.372-2.781 1.652-6.249 2.417-9.24.804-3.14 1.634-6.326 3.34-9.115.474-.774.983-2.002 2.034-1.638.765.265 1.329 2.075 1.565 2.714 1.066 2.888.885 6.099.818 9.122-.082 3.705-.48 7.327-1.426 10.919zm-106.408 5.374c-.292-.094-1.53-.212-1.838-.239-.36-.031.049-.694-.823-.506.169.417.467.695.897.835-1.31.443-2.277-.651-3.173-.792-.857-.135-.893 0-1.739.905-.917-1.117-.745-.421-1.499-.42-.274 0-.286.414-.732.365-.39-.044-.431-.635-.661-.704-1.251-.378-2.537 1.525-3.956-.126-.343 1.718-4.281-.434-5.796-.132-1.588.316-.903.885-2.186-.088-1.223-.926-.882-.311-2.304.448.033-.018-.803.546-.726.555-.984-.115-.928-1.132-2.175-1.078-1.32.057-1.884 1.091-3.092-.182-.262.953-.317.543-.935.783-.341.081-.639-.009-.894-.268a.65.65 0 01-.511.482c-.674.06-1.939.154-2.552-.17-.919-.487-.18-.675-.817-1.222-.286 1.51-.912 1.189-2.232 1.33-1.007.108-1.229-.201-2.191-.351-.947-.148-2.171.22-3.096.376-.381.065-.892.331-1.28.238-.35-.085-.5-.356-.709-.427-.254-.086-.2-.308-.639-.415-.302-.074-.844.21-1.146.259-2.154.349-4.223.353-6.278-.494 1.012 1.778-2.366.818-2.969.081-.752 1.179-1.663.347-3.18.439-1.461.089-3.659.536-4.251-1.283-.116.37-.946 1.443-1.276 1.607-.957.474-1.072-.228-1.962-.514-1.212-.389-.959.35-1.711.5-1.269.254-1.954-.639-3.076-1.114-.047.738-.071 1.192-.71 1.652-.565-2.058-2.583.168-2.237-2.582-.767.5-1.847.884-2.066 1.894 1.284-.353.137.486.083.513-.169.089-.743-.715-.876-.828l-.108 1.138c-.512-.256-.992-.714-1.407-.943-.374-.206.162-.636-.47-.666-.333-.016-.681.705-1.03.767-.535.093-.278-.673-.502-.647-.34.039-.896.537-1.154.527-.844-.031-.273-.424-.917-.604-1.153-.323-1.079.431-1.907.702-1.895.622-1.705-2.239-3.633-.331-.461.457-.758 1.162-1.39 1.123-1.308-.083-.849-1.633-.583-2.392.275.135-4.781 2.731-4.741 2.63.032-.623.827-1.103.117-1.656-.582 1.246-1.193 1.268-2.533 1.5-.652.113-.78.264-1.477-.007-.444-.172-.742-.88-1.184-.919.06.006-.751.622-.874.677-.732.33-1.194-.044-1.905.092-.606.115-.845.631-1.448.489-.804-.188-.332-1.148-1.438-.88-.379.092-.606.82-1.203.971-.929.235-2.068-.204-3.05.025-.78.182-1.358.259-2.04.297-.551.031-.324-.397-1.338.108l-.43-1.083-1.523 1.369a7.47 7.47 0 01-.183-1.243c-.757.758-1.71.887-2.728.955-1.101.074-1.922.314-2.995.516-.338.063-1.212.165-1.49.046.041.017-.522-.216-.352-.172a7.367 7.367 0 01-.204-.453c-.094-.428-.402-.446-.922-.057-.269-.041-.79-.394-1.058-.307-.692.224-.598.76-1.287.682-.447-.052-.675-.712-1.141-.757-.712-.068-1.329.729-1.971.903 1.951-.53-2.531-.119-1.138-.083-.913-.023-1.862-.069-2.707.341-.466-.319.1-.96-.371-1.224-.428-.239-.461.393-.511.406.27-.076.135.462-.134.557-.841.298-1.515-.459-1.558-1.211-.714 1.075-.915.643-1.966.71-1.037.065-1.931.608-2.967.598-2.051-.019-3.443-.732-4.127-2.562 2.185.267 4.384-1.138 6.521-.807.702.108 1.141.636 1.756.542.758-.115 1.288-.942 2.26-1.031 2.143-.196 4.257-.005 6.415-.333 2.579-.393 5.269-.626 7.873-.434 2.011.148 3.64-.621 5.68-.769 2.637-.192 5.297-.226 7.939-.365 2.714-.142 5.636-.575 8.343-.436.845.043 1.572.126 2.411.075.355-.021.691-.262 1.063-.226.485.047.693.543 1.196.526.854-.029 1.768-.733 2.783-.752 1.67-.032 3.333-.028 5.008-.123 1.474-.084 3.053-.428 4.521-.409 1.035.013 1.29.894 1.893.985 1.085.164 6.572-2.957 7.046-.156 2.857-1.954 6.688-.3 9.868-.667 4.084-.472 8.244-.051 12.357-.219 4.184-.171 8.489-.013 12.657.382 1.727.163 3.395.316 5.126.217.772-.044 1.664-.241 2.436-.063.187.043 1.618 1.042 1.441 1.07.782-.701.253-.804 1.628-.84 1.06-.028 2.063.201 3.117.264 1.893.111 3.8-.151 5.688-.093 1.576.048 3.118.281 4.703.292 1.708.013 3.726.061 4.962 1.437l-.392-1.296c1.907.149 3.792.829 5.72.511-.488.467-.983.848-1.169 1.533 1.039-.132 1.743-.857 2.837-.863.92-.005 1.111.455 2.082-.14l.358 2.189c1.344-.317.462-1.318.56-2.221 1.093.328 2.018-.049 1.587 1.522-.332 1.211-1.844 1.808-2.982 1.439zm-1.889 13.49c-.469 1.316-4.523.564-5.482.425-1.238-.179-2.655-.464-3.796-.605a1.974 1.974 0 00-.492-.464 1.178 1.178 0 01-.544.424c-.524.115-.526.655-1.214.536-.032.8.524.345.949.635-1.073.719-.582-.108-1.184-.095-.149-.212-.357-.295-.623-.249a2.858 2.858 0 00-.938.435c-.268.283-.498.298-.689.045a1.187 1.187 0 00-.671-.341c-1.057.171-1.353.64-2.543.563-1.7-.109-3.54.339-5.214.103-1.037-.146-2.771-1.775-3.242-.187-.717-1.177-1.86-1.978-2.546-3.181 3.199-.185 6.396-.406 9.598-.521 2.803-.101 5.87.215 8.489.082 2.454-.123 5.052-.394 7.558-.618 2.655-.237 3.534.345 2.584 3.013zm-83.451.194c1.161.321 2.267-.407 3.394-.177.372.076 1.143.754 1.313.767.31.025 1.222-.64 1.613-.73 2.474-.562 5.471-.503 7.945-.157 1.311.183 1.512-.416 2.656-.707 1.189-.304 2.88-.07 4.132-.154 2.946-.197 5.89-.057 8.816-.272 3.004-.221 5.993-.341 8.999-.495 2.047-.105 6.966-1.273 8.663.246 1.399 1.253-.403 3.427-1.803 3.924-1.047.37-1.548-.411-2.325-.336-.885.085-.576 1.129-1.366.16-.489.964-3.565.553-4.446.617-1.921.139-3.546.524-4.854-1.267l.266 1.549c-1.733-.926-3.594-.629-5.099-.306-.746.16-3.033 1.264-3.841.788-.555-.328.424-.888-.513-1.168-.491-.147-1.339.669-1.939.628-1.661-.115-1.19-1.231-2.822.19-.553-.478-.736-1.29-.663-1.986-1.185 1.01-1.086 2.694-3.205 2.386-.79-.115-.935-.92-1.347-1.068-.877-.317-.976.252-1.736.702-.287.17-.637.443-.974.478-.694.069-.804-.25-.899-.239-.462.051-1.043.285-1.591.118-.491-.151-.635-1.018-1.501-.815-.828.194-.835.757-.685 1.599-.817-.085-1.312-.54-1.923-1.033-.617 1.44-1.917.248-2.635 1.462-.936-1.118-1.537-.81-2.699-1.901.058.455.115.91.171 1.366-.906-.175-1.309-.814-2.083.032-.75-1.398-3.026.593-4.195-.756-.521 1.709-3.968 1.3-5.424 1.33-1.29.026-2.245-.079-3.506.22-1.114.265-2.658.539-3.706.418-.684-.079-1.433-.205-2.286-.112-1.229.133-2.291.77-3.565.469-1.918-.453-3.093-2.971-.957-4.077 1.461-.757 4.095-.477 5.704-.617 2.666-.231 5.654-.716 8.324-.496 2.082.172 3.981-.324 6.105-.534 1.6-.158 4.222-.442 5.265 1.142.401-.462.359-1.427 1.222-1.188zm-29.188 21.691c-.286-1.426 11.903-2.21 13.113-2.303 2.54-.196 5.087-.336 7.634-.4 2.093-.053 4.046.346 6.139.025 1.956-.3 4.315-.915 6.017.469.251-1.892 7.588-.97 8.984-.965 6.077.021 11.892.036 17.769-.34 3.36-.215 6.927-.505 10.286-.337 1.516.076 2.736.48 4.243.129.983-.228 2.042-.703 2.982-.031 1.1.787 1.571 3.458.813 4.573-.552.812-1.041.723-1.923.582-1.355-.216-2.363-.529-3.745.022.224-.09-.926.167-.831.159-1.566.117-3.714 1.211-5.063-.05.541.095 1.326-.87.645-.949-.512-.059-.837.489-1.236.673-1.366.628-2.066.431-2.881-.886-1.646 1.423-1.823 1.029-2.545-.724-.557.428-.676 1.441-1.114 1.773-.065.05.205.665-.111.639-.294-.023-.39-.504-.615-.542-.144-.024-.219-.445-.357-.471-.15-.028-.303.241-.473.233-.451-.021-1.744.941-1.281-.409-.685.871-.98.316-1.227-.477l-2.373 1.803c-.367-1.022-1.001-.744-1.797-.387.24-.71.09-1.381-.512-.888-.349.286-.583 1.193-.94 1.578-1.444-1.461-1.969-1.06-3.964-.87-.761.072-1.708.213-2.388-.247-.598-.404-.937-1.887-1.96-.689.229-.266-.129 1.78-.192 2.105a4.453 4.453 0 01-1.15-1.12c-.588 1.164-2.133.119-3.399.357-1.994.375-4.05 1.006-5.811-.477-.124.479-1.566 1.089-1.569 1.107.086-.847.621-.55-.472-.71-.201-.03-.429.332-.619.371-.651.135-1.412.007-2.069-.012-2.731-.078-5.231.527-7.928.746-.91.074-1.988.219-2.842-.124-.879-.353-.855-.754-1.745-.526.282-.072-.555.807-.51.774-.12.087-.619-.342-.796-.31l-.155.562-.643-.079c-.587.079-1.116-.514-1.667-.534.101.003-1.487.594-1.415.63-1.109-.553-.79-.392-2.197-.056-1.33.318-2.653.244-4.017.442-3.969.576-1.605-1.411-2.093-3.839zm-3.505 19.829c-.746-1.058 1.239-1.423 1.874-1.517 1.043-.153 2.426.152 3.121-.013 1.058-.252 2.08-.852 3.271-1.015 1.504-.206 3.019-.239 4.529-.368.503-.043 1.126-.216 1.615-.187.729.044 1.031.429 1.62.432 1.002.005 2.238-.627 3.265-.743 1.315-.149 2.644-.219 3.965-.285 2.785-.138 5.54-.081 8.324-.084 1.269-.001 4.649-1.318 5.282.158.88-1.119 3.137-.966 4.395-.999 2.217-.057 4.41-.27 6.625-.373 1.896-.088 4.014.317 5.877.033 1.026-.156 1.366-.485 2.529-.336.865.109 2.183-.348 2.925-.146-.038-.01.927.587.625.606.332-.021.312.211.678.107.48-.135.259-.738 1.254-.952 1.552-.335 3.621.052 5.232-.034a80.67 80.67 0 014.691-.111c.72.003 1.612-.169 2.313-.029.343.069 1.073.517 1.364.472.825-.129 1.245-.701 2.361-.666 1.264.04 2.402.023 3.659-.074 1.217-.093 1.412-.266 2.015.746.598 1.004.763 2.312-.337 2.994.715-.047 1.594.91.752 1.439-.521.328-1.565-.411-2.188-.358-.768.066-1.371.472-2.206.497-.879.027-1.771.248-2.637.265-.903.017-1.585-.386-2.441-.214-.753.151-.833.768-1.74.227-.45-.27-.527-1.268-1.141-1.278-.824-.012-.496 1.052-.97 1.545-.127-1.522-1.302.996-1.769-.851-.431.613-2.025 1.471-2.798.978-.704-.449-.47-1.465-.764-2.197-.488 1.316-1.798 2.681-1.679.285-.637.783-2.357.66-1.926 2.03-.518-.01-.641-.75-1.077-.806-.377-.048-.676.241-.733.237.206.017-.617.291-.63.294.557-.114-1.608-.307-1.239-.303-.503-.004-1.117.407-1.705.405-.535-.001-1.067-.212-1.596-.272-1.369-.156-1.084.145-1.944.575-.319.159-.399.428-.851.395-.334-.025-.459-.461-.496-.464-.47-.047-.123-.205-.852-.132l-.25.431c-.263.336-.605.42-1.024.253-1.079.231-4.655 1.233-4.305-.623l-1.644.804c-.235-1.497-3.213.487-3.878.587-.853.128-.932-.199-1.739-.373-.145-.031-.437.448-.777.379-.886-.178-1.043-.266-1.195-1.227-.631 1.18-1.156.652-2.3.846-.254.043-.415.541-.779.455-.262-.061-.269-.54-.45-.602-.162-.056-.138-.434-.378-.487-.274-.062-1.211.705-1.479.824-.606.267-1.601.708-2.193.576-.731-.163-.406-.705-1.439-.644-1.63.095-2.31 1.482-3.325-.703-.457.875-.399 1.113-1.134 1.402-.544.213-1.92-.01-2.635-.036-3.055-.113-6.058.927-9.087.655-1.332-.12-2.455-.386-3.799-.169-1.412.23-2.793.566-4.225.702-.729.069-2.25.278-2.608-.653-.314-.819.859-1.378.201-2.31zm5.992 33.594c-3.963 2.649-7.244 6.267-10.883 9.331-3.647 3.071-6.542 6.485-9.822 9.887-3.033 3.144-5.82 6.118-9.486 8.494-2.321 1.504-4.391 3.355-6.774 4.773-1.785 1.062-4.489 2.458-3.619-.789.893-3.329 2.541-6.693 3.972-9.802 2.035-4.418 4.085-8.796 6.286-13.131.827-1.629 1.29-3.25 2.602-4.547 1.428-1.413 2.427-3.256 3.991-4.59 6.576-5.612 16.486-1.277 23.733.374zm12.429 1.902c-1.797.942-3.809 1.175-5.714 1.798-1.623.53-3.132 1.474-4.878 1.544 1.589-1.193 2.954-2.813 4.746-3.718 2.015-1.019 3.845-.278 5.846.376zm78.891 7.848c-6.611-2.23-12.767-5.515-19.206-8.159-1.111-.457-9.805-3.318-9.628-4.68 6.092-1.116 12.366-3.03 18.472-.943 5.556 1.899 10.074 6.453 14.375 10.265 1.122.995 8.061 5.524 7.44 6.966-.43 1-3.773.727-4.563.522-1.02-.265-1.607-.884-2.407-1.563-1.338-1.137-2.818-1.846-4.483-2.408zm-12.205-37.251c1.005-.923 1.606-2.325 2.565-3.177 1.232-1.096 3.221-.562 4.568.007 4.043 1.708 7.498 4.578 11.516 6.359 4.453 1.975 8.307 4.613 12.323 7.332 3.671 2.486 7.64 4.544 11.387 6.915 3.818 2.418 8.092 3.989 11.963 6.321 3.939 2.373 7.863 4.756 11.648 7.371 6.75 4.663 13.778 9.452 18.772 16.082 2.566 3.408 4.969 7.273 6.852 11.1 1.713 3.479 3.57 8.308 1.351 11.927-2.131 3.475-5.763 6.212-8.836 8.806-1.165.981-2.272 2.174-3.781 2.6-1.835.517-3.977.375-5.864.528-10.093.817-19.495.045-29.44-1.759-9.59-1.739-19.22-2.713-28.884-3.922-5.451-.682-10.902-1.477-16.279-2.612-2.299-.486-4.638-1.046-6.887-1.708-1.965-.577-3.617-1.849-5.637-2.353-8.572-2.14-18.379-2.958-26.866-6.556 7.51-3.12 15.491-5.004 23.188-7.596 8.101-2.729 16.013-5.018 24.552-5.793 4.393-.399 8.325-1.52 12.552-2.694 4.028-1.119 8.233-1.462 12.37-1.963 1.84-.223 7.09.111 7.7-2.293.908-3.579-4.251-3.992-6.45-3.671-3.12.455-5.693 1.233-8.08-1.326-2.438-2.612-4.807-5.287-7.29-7.866-4.602-4.782-9.346-10.314-15.851-12.46-7.937-2.617-17.141-.133-25.06 1.356-8.365 1.572-16.716 3.077-24.924 5.363-3.399.946-7.782 3.031-11.31 2.697-3.477-.331-7.414-.9-10.774-1.902-1.52-.453-2.77-1.294-4.13-2.077-1.769-1.019-3.707-1.672-5.584-2.464-3.796-1.601-7.496-3.076-11.591-3.706-3.449-.53-7.111-.844-10.453.364-3.279 1.186-6.184 3.599-8.472 6.178-2.485 2.802-4.539 5.941-6.575 9.071-.978 1.502-2.171 2.813-3.184 4.281-.851 1.234-1.347 2.604-2.246 3.803-2.014 2.682-3.381 6.112-4.601 9.232-1.356 3.465-2.862 7.586-2.538 11.356.122 1.425.25 3.312.802 4.633.701 1.68 1.701 1.637 3.142 2.271 2.477 1.089 3.172 4.099 6.372 3.512 3.002-.55 5.606-3.023 7.796-4.994 2.855-2.568 5.587-5.276 8.319-7.974 2.803-2.769 5.565-5.841 7.795-9.098.878-1.283 1.563-2.731 2.6-3.899 1.321-1.488 2.804-1.666 4.599-2.259 15.687-5.18 31.451-10.178 47.629-13.598 3.876-.82 7.783-1.877 11.59-2.968 4.038-1.157 6.13.066 9.462 2.268 6.963 4.601 15.193 7.842 22.946 10.844 2.441.945 6.328 1.005 8.236 2.87-11.312 1.723-22.092 5.039-33.002 8.342-5.38 1.627-10.821 3.039-16.22 4.596-5.402 1.558-10.598 3.576-15.926 5.331-5.302 1.748-10.905 2.461-16.258 4.073-5.465 1.645-10.907 2.777-16.517 3.777-5.664 1.01-11.288 2.176-16.972 3.08-2.602.414-5.204.844-7.777 1.413-2.518.558-4.951 1.893-7.481 2.202-11.302 1.382-22.382 4.461-33.639 6.202-8.405 1.3-23.029 3.113-28.48-5.316-5.48-8.477 1.244-18.365 7.244-24.426 3.729-3.766 7.919-7.082 12.315-10.031 4.704-3.156 9.23-6.564 13.937-9.716 10.649-7.132 22.196-12.949 33.637-18.681 5.491-2.75 10.797-5.701 16.139-8.72 2.651-1.498 4.119.92 6.215 2.563 1.648 1.293 4.675 4.479 6.981 3.006l.267 1.592 2.026-.923c.454 1.189.401 1.928 1.669 2.552.778.384 2.44.846 3.182.17l.454 1.409c.649-.05.774-1.905.897-2.339 1.111 1.623 2.649 2.98 4.604 3.438.009-.106-.318-1.439-.304-1.447.618-.379 1.398 1.241 1.726 1.588 1.087 1.15 1.735.972 2.936.044.087.095.494 1.154.553 1.135.26-.082.753-1.021.807-1.107-.075 1.236 2.311 1.484 3.154 1.219l-.567-1.086c2.936-.391 4.088 2.726 6.905 2.568 2.083-.118.413-.573 1.592-1.465 1.029-.779 1.213.926 1.314.871.197-.205.349-.441.457-.709.381 1.46 3.415 2.769 3.101.37 1.194.477 2.042 1.269 3.363 1.436 1.606.203 3.321-.137 4.922-.27 3.452-.287 6.706-.991 9.817-2.572 1.845-.937 3.808-1.787 5.542-2.917 1.451-.946 4.204-3.819 6.136-2.582-.495-1.459 1.835-.107 1.909-1.986l1.123.846c.224-.492.161-1.267.462-1.696.412-.588.614-.242.966-.573.393-.37.737-1.362 1.209-1.645.486-.29 1.059.056 1.582-.198.797-.387 4.225-4.164 3.644-.928 1.475-.5.338-.958.522-1.939.37-1.968 1.27-.552 2.166-.381 1.468.282 1.439-.931 2.257-1.813.748-.805 2.153-1.165 1.669-2.564.553.298.67.882.734 1.448zm-88.488-42.016c-1.157 1.287-2.023.737-3.308.548-.138-.461-.373-.524-.705-.192a3.541 3.541 0 01-1.23.432c-1.054.26-2.149.15-3.181.543.03-.345.393-.959.16-1.31-1.084.75-1.757 1.227-3.089 1.241-1.079.012-2.973-.812-3.869.173l-.083-1.15a3.735 3.735 0 00-1.145.877c-.062-.568-.096-.998-.472-1.457-.713 1.466-1.494 1.501-2.879.941.194.078-1.386-.848-1.326-.591-.5-2.105 7.388-1.931 8.217-2.014 2.068-.209 4.136-.33 6.207-.521 1.964-.18 3.431-.487 4.79 1.151-.606-2.366 5.126-2.248 1.913 1.329zM51.833 120.48c.218 3.577 1.014 7.379-.377 10.822-1.119 2.768-3.35 5.893-5.755 7.699-4.922 3.698-9.094-.827-9.78-5.8-.713-5.187.702-11.524 5.17-14.722 2.67-1.911 5.256-1.778 8.33-1.15.721.148 1.894.091 2.306.808.097.167.01 2.34.106 2.343zm65.378 47.659c-.85.43-1.74.681-2.49 1.264-.26.203-.349.665-.625.835-.503.311-1.222.105-1.746.362-.867.423-1.489 1.03-2.52 1.42-1.531.58-2.873 1.375-4.321 2.129-2.411 1.257-4.999 2.336-7.52 3.359-1.272.516-4.79 1.522-4.669 3.384-.284.077-.575-.545-1.17-.495-.815.067-1.893 1.01-2.74 1.242-1.585.434-2.811.472-2.811 2.491-.504-.342-.632-1.181-1.303-1.291-.756-.125-1.073.689-1.678.942-.71.299-1.596.012-2.3.33-.308.326-.65.61-1.028.853a3.955 3.955 0 01-1.144-.036c-1.496.317-2.872.88-4.371 1.171-1.461.286-2.462.389-1.848 2.116-1.563.306-1.945-1.352-3.708-.745a48.843 48.843 0 01-6.438 1.731c-1.151.231-2.354.747-3.513.868-.827.087-1.599-.209-2.413-.117-.981.11-1.77.564-2.786.581-.963.017-1.974-.156-2.92-.326.133.381.3.747.502 1.096-.655-.137-.957-.923-1.511-1.039-.582-.122-1.104.478-1.588.345-.206-.057-.07-.693-.438-.814-.337-.11-.479.02-.812-.033-.112-.017-1.507-.092-1.73.025-.388.206.005.592-.072.649-1.313.971-1.329.447-1.914-.567-.859-1.489-1.895-.549-3.456-.81-1.74-.29-3.112.478-4.825.368-1.847-.118-4.018-1.499-5.652-2.306-3.527-1.743-6.967-3.391-9.929-6.031-5.79-5.159-10.502-11.503-13.28-18.766-2.984-7.803-3.55-15.941-3.31-24.22.145-4.978.543-9.954 1.328-14.874.54-3.385.654-9.4 4.472-10.941.656 7.925-1.415 16-.109 23.874.394 2.371 1.353 5.531 3.168 7.288 2.687 2.599 3.316-1.159 3.56-3.235.451-3.856 1.292-7.69 1.887-11.527.595-3.836 1.015-7.715 1.842-11.51.301-1.384 2.732-11.519 4.517-11.039-.361 7.373-1.32 14.619-1.358 22.018-.015 2.968-.28 6.103.148 9.052.22 1.517 1.603 5.969 3.98 5.598 2.201-.344-.218-3.48-.423-4.689-.544-3.202.15-7.184.656-10.362.96-6.013 3.103-12.172 6.604-17.197 3.136-4.5 7.964-8.783 13.78-7.99 2.486.339 4.425.956 5.673 3.225.98 1.78 4.84 3.802 2.603 6.031-2.036 2.029-5.33.405-7.592-.079-2.772-.592-5.742.121-8.06 1.744-3.976 2.784-6.242 7.762-6.981 12.43-.997 6.295 1.667 22.771 11.483 19.079 6.52-2.454 11.431-11.278 10.884-18.035-.22-2.704-1.277-7.838 2.466-8.568 4.796-.936 5.474 4.348 4.988 7.783-.706 4.994-3.347 9.639-6.369 13.588-2.634 3.442-5.697 5.595-8.866 8.438-.938.841-3.331 2.733-2.93 4.299.442 1.715 4.203 2.203 5.708 2.485 7.45 1.394 15.852.111 23.29-.862 15.285-2.001 30.37-6.928 42.904-15.988.507 5.606 1.145 11.192 1.38 16.818.114 2.731.143 5.502.456 8.218.192 1.67.887 4.004-1.012 4.963zm-42.385 19.533c-.6.313.048-1.584-.119-.956.897.321.937.64.119.956zm63.41-67.839c.953-1.049 3.556-3.546 4.382-1.177.307-1.01.347-2.506 1.533-1.142.473-1.675 5.684-1.518 6.975-1.592 4.132-.236 8.282-.363 12.4-.773 8.463-.843 17.073-.408 25.566-.436 1.839-.006 3.674-.105 5.499.161 1.762.257 3.614.979 5.41.716 1.596-.235 2.643-.675 4.286-.487 1.967.226 3.876.386 5.86.378 8.775-.032 17.546.324 26.323.338 1.71.002 3.76-.332 5.365.394.594.27 1.244 1.165 1.698 1.264.52.112.211-.699.908-.333.933.491.211 1.999-.406 2.238.369-.143-.666-.284-.563-.29-.491.027-.91.404-1.438.38-.804-.035-1.477-.525-2.124-.956-.011.176.345 1.35-.062 1.409-.349.051-.677-1.106-.712-1.376-1.964 1.731-4.044.767-6.48.986-1.729.156-5.332 1.308-6.538-.496-.05.384-.204.72-.461 1.008-.345.524-.642.48-.894-.135-.085.004-.925.186-.941.185-.591-.047-1.357-.259-1.958-.31-.93-.08-.759.597-1.5.608-.405.005-1.436-.578-2.142-.615-1.222-.064-2.47.454-3.676.298-.83-.108-1.58-.784-2.394-.81-1.015-.034-1.344.74-2.148-.346-.165-.045-.267.594-.332.605.016-.003-.765.113-.858.149-.16.061-.784.347-.974.35-.411.008-.633-.286-1.068-.293-.72-.012-3.018.621-2.954-.71-2.568.952-4.759.581-7.396.806-1.209.103-1.969-.059-3.12-.28-1.441-.278-2.398.071-3.835.142-1.381.067-1.816-.517-2.982-1.044-.46-.208-.764-.482-1.328-.367-.322.066-.093.607-.188.644-.495.191-.841-.011-1.52.035-1.255.086-1.754 1.133-3.043.15.428-.052.857-.105 1.286-.156-1.233-.523-2.86-.789-2.562 1.113-1.051-.148-.141-.863-.658-1.12-.517-.255-1.095.173-1.746.384-1.72.558-3.153.281-4.945.181-2.037-.114-6.801 1.547-8.26-.609-.044.455-.532 1.72-1.181 1.661-.212-.02.378-1.364.445-1.506-.335.712-1.861.847-2.614 1.216l.253-1.147c-.698.744-1.037.29-1.859.538-.36.109-.88.85-1.187.894-.358-.414-.808-.593-1.349-.535a2.728 2.728 0 00-1.082-.053c-1.442.105-2.757.906-4.192.36-1.242-.473-1.722-1.689-2.463.246l-.584-1.032-.722 1.12c-.939-.615-.997-.971-2.078-.745a.933.933 0 01-.781-.043l-.191.568c-.025.476-.167.634-.424.472a1.74 1.74 0 01-.586-.354c-.716.055-1.629.243-2.397.139-.297-.04-2.155-1.02-2.293-.868zm21.894-12.807l.253.388c-1.162.613-1.435.261-1.555-.97.567.011.664 1.009 1.302.582zm.719-.722c.56.247 1.201.731 1.728.082.354 1.031-2.28 2.437-1.728-.082zm3.613.455c1.174.793-1.643.156-1.638.157.506-.467 1.052-.519 1.638-.157zm10.099-4.423c.403 2.031 1.514 1.973 3.307 1.029 2.614-1.377 3.056-3.632 3.238-6.325.175-2.582.491-3.581 3.154-3.042 1.86.376 3.432.06 5.307.008 2-.055 2.705.25 2.865 2.308.162 2.06.528 3.624 2.024 5.191 1.52 1.594 3.548 2.546 5.524 3.437 1.016.458 1.97.951 3.094 1.051.436.038 2.703-.248 2.75.469.036.539-3.104 2.059-3.437 2.24-1.456.792-2.908 1.502-4.499 1.981-3.659 1.104-7.539 1.169-11.329 1.102-6.111-.107-14.557-2.691-18.211-8.11l6.213-1.339zm-.548-17.588c-.967-.811-1.593-2.036-2.396-2.997-.405-.484-.702-.638-1.087-.88-.406-.256-.635.105-.974-.495-.875-1.55 1.826-3.733-1.038-4.33-.969-.202-3.301.565-3.584-.823-.4-1.962 3.347-2.09 4.228-3.086 1.753-1.98.563-5.336 1.631-7.62 1.011-2.163 3.619-2.548 5.678-3.198 2.87-.905 5.773-1.43 8.686-2.155 2.037-.507 5.421-2.541 7.31-.743-2.915.647-1.221 1.662.722 2.235 2.201.65 4.534.903 6.814 1.084 2.347.186 4.739.222 7.059-.246 2.145-.433 4.54-2.296 6.789-1.819-1.247 2.169-4.965 3.354-7.224 3.922-1.151.289-1.888.199-1.733 1.633.15 1.39 1.359 2.784 1.632 4.232.361 1.916.046 3.678-.637 5.48-.672 1.774-.828 2.005-.241 3.7.914 2.638-1.051 5.554-2.867 7.47-7.346 7.748-21.402 4.813-28.768-1.364zm18.664-46.303c.03.079.005.049 0 0zm2.288 19.552c-.304.227-2.058.704-1.985.019.098-.918 1.679-.587 1.985-.02zm3.998-18.545c-.412-.307-1.565-.181-.721-1.343l.721 1.343zm-27.664-7.348c.524-1.362 1.105-2.63 1.342-4.08.146-.894-.145-1.914 1.105-2.054-1.593-.694-1.609-3.434-1.703-4.855-.129-1.956-.747-4.575.113-6.395.883-1.87 2.074-1.84 2.433.388.141.872-.397 1.154-.499 1.761-.2 1.201.198.938.974.023.32.93.443 2.328 1.746 2.269-.087-.252-.586-.807-.419-1.12.256-.48 1.507.254 1.665.365 1.143.8 1.391 1.528.576 2.536 1.128.122.181 1.109.91 1.366 1.111.393.366-1.467.245-1.794.677.263.903.565 1.332 1.099.251.368.48.75.686 1.146.231.723.705.904 1.422.544 1.44.451 3.427.38 4.717 1.17.589.36.801 1.148 1.294 1.447.553.337 1.296.184 1.891.396-.218.494-.042.762.527.803.443.04.871.14 1.285.299.31-.233.647-.418 1.011-.552.244.43.59.537 1.037.32 1.327.249 1.965.75 2.808 1.5.757.674.141.729.971.669.333-.024.917-.59 1.679-.479.439.085.862.22 1.27.405.44.377.908.424 1.403.143.803.392.882 1.088 1.862 1.183 1.084.106.735-1.245 1.479.66 1.002-2.02 1.37 1.197 2.404 1.457 1.072.269 1.188-.6 2.105.35.275.284.26.754.568 1.055.506.494 1.19.395 1.63 1.069-.245-.376.058 1.331.053 1.275.068.753-.602 1.597.771 1.533-.015.079-.675 1.04-.803.93a3.428 3.428 0 01-.08-.333c-.147.064-.212.979-.185 1.14.116.018.164-.068.143-.26-.226.706.114 1.155-.319 1.824-.277.428-1.036.75-1.439 1.014a84.612 84.612 0 00-2.875 1.957c-2.214 1.582-4.692 3.492-7.479 3.822 1.399-1.374 9.454-6.574 5.414-8.066-.749-.277-2.113-.539-2.897-.597-.975-.072-1.982.486-3.057.137-1.298-.419-.809-1.638-1.601-2.075-1.683-.928-1.286 1.254-1.815 1.825-.557-.583-.438-.867-1.316-.92-.892-.054-1.104.77-2.145.257-1.433-.707-.675-2.117-2.708-2.15.034-.309.329-1.173-.059-1.414-.524.678-.119 1.436-.605 2.089-.242.328-.77.589-1.155.695-.902.247-1.03.721-.883-.636-.669 1.203-2.718.709-3.937.587-1.981-.196-4.087-.571-5.987-1.206-1.757-.588-2.696-1.597-4.145-2.516-.548-.348-.809-.215-1.594-.43-.776-.213-1.532-.626-1.166-1.576zm4.181-21.305c.299-.18.514 2.508.151 3.01-.664-1.05-1.841-2.59-.151-3.01zm.955-1.073c.963-.87.294 1.378.118 1.755l-1.069-.685c.454-.28.568-.723.951-1.07zm36.297-3.622c8.888 1.864 17.695 5.349 24.824 11.083 6.493 5.224 11.076 12.635 13.646 20.518 2.667 8.183 1.771 17.262-4.575 23.524-3.343 3.299-7.757 5.29-11.963 7.231-2.016.93-4.092 1.706-6.115 2.615-1.454.653-3.228 1.697-4.886 1.516.846-.89 2.073-.908 3.097-1.452 1.238-.658 2.248-1.92 3.314-2.822 1.059-.895 3.408-3.714 5.035-3.032-.226-1.502 1.486-2.2 2.257-3.19.816-1.047.875-2.273 2.378-2.615-1.615-1.263-1.12-3.645-.769-5.364.449-2.2.657-4.218.835-6.455.319-4.034.576-9.172-1.654-12.718-.723-1.152-1.645-2.21-2.29-3.406-.778-1.441-.607-2.71-.607-4.29-1.422.956-1.722-.992-2.323-1.942-.451-.712-1.043-1.11-1.189-2.007-.106-.652.603-.762.214-1.446-.476.36-.665.916-.907 1.433-.439-.175.079-.787-.173-.985-.007-.006-.855-.374-.813-.32-.545-.692-.721-1.839-.988-2.661-.999.506-.812.446-1.927-.4-.196-.148-1.177-.831-1.27-1.055-.431-1.044.325-.425.114-1.074-.607-1.862-4.014-1.51-4.284-4.3-1.661 1.054-2.294-.44-3.276-1.501-1.006-1.088-2.694-1.507-2.604-3.233l-1.568.535c.272-1.593-2.096-1.491-2.953-2.3.476.007.949.044 1.42.113zm1.354 98.645c.823-.736.573.244 1.103.132.454-.096.543-.439.978-.544 1.791-.432 4.468.111 6.351.018 2.181-.108 5.921.345 6.96 2.896.626 1.536-.329 1.013-1.382.899-.816-.088-1.542.077-2.35.068a3.52 3.52 0 01-1.194-.018.755.755 0 01-.343-.538c-1.124-.17-2.317.495-3.562.528-1.661.044-3.138-.274-4.4-1.396-.502.748-.843 1.119-1.746 1.202-.023.003-.905-.352-1.041-.387-.181-.047-.638.331-.986.223.618-.983.708-2.275 1.612-3.083zm113.454 8.877c.294-1.019.539-2.052.806-3.078 4.1 4.665 7.689 10.911 9.304 16.895 1.048 3.888 2.681 10.933-2.32 12.939-4.073 1.634-6.344-4.222-7.375-7.106-2.275-6.367-2.275-13.171-.415-19.65zM144.086 40.519c.053-.01-2.654 1.563-1.762.289.358-.513 1.717-.873 2.319-.873l-.557.584zm-2.604.667c-.313.263-.63.523-.949.78l-.92-1.452c.605-.255 3.17-.446 1.869.672zm-1.908 48.926c-.566-.383-1.015-.18-1.186.464 0-.64.334-2.128.847-2.302.331-.112-1.102-1.807-.699-2.25 1.024.586.411 1.148.711 1.905.136.341.542.665.632.927.151.446.762 1.977-.305 1.256zm-2.775-3.813c-.58.148.436 1.105.435 1.528-.001.32-.385.566-.544 1.004-.344.948.248 1.589-.726 2.312 0-2.078-1.395-7.584 1.286-8.597-1.308-1.03-.234-2.218.792-.985.985 1.184.357 4.328-1.243 4.738zm-1.397-8.2c-.527-1.869-2.113-2.522-3.926-2.411.069-.957.794-2.335 1.317-.612.216-.51.365-1.174.856-1.511.827 2.59 4.95 4.022 2.383 6.83-.21-.765-.414-1.532-.63-2.297zm-4.791-2.272c-9.546.692-22.949 2.672-30.588-4.642-4.981-4.77-4.715-12.196-.69-17.494 2.297-3.024 5.433-5.153 8.583-7.18 1.215-.784 2.244-1.3 3.578-1.75a.928.928 0 01.61.144c.075-.322.256-.56.545-.716.516-.275 1.25-.374 1.546-.946-.316 1.075-.479 2.18-.595 3.292l-.771-.897c-.215 2.025-2.326.799-3.586 1.052.83 1.148 1.424 1.565 1.495 3.083-.618-1.141-1.911-1.891-3.113-2.259.653 1.93 1.114 3.075.457 5.192-.794-.453-.847-1.542-1.81-1.802-.255 1.262-.299 2.662-.625 3.887-2.466-1.124-2.225 1.903-1.235 3.401.526.797.785 1.72 1.255 2.485 1.152 1.877.277-.93 1.558-.797-.288 1.98-.388 2.177 1.061 3.626 1.415 1.414 2.148 3.375 3.661 4.703.438-.56-.251-1.145-.311-1.68 1.407.235 2.067 1.646 3.42.396.59 1.15 1.229 2.416 2.642 2.652-.934-1.775 1.795-.571 2.494-.32.531.192 1.482.344 1.686.417 1.153.416.363-.33 1.063 1.034 1.027-.31 1.415-1.162 2.644-.442.999.586 1.001 1.588 1.229 2.615.239-.672.479-1.343.742-2.006.268.113 1.394 1.35 1.271 1.356 2.633-.129 2.54 1.505 1.784 3.596zm-13.403-33.498c.528-.371 1.174.123 1.767-.01.823-.184 1.289-.887 2.208-.963-.256.816-.735.74-1.141 1.38-.138.219-.066.743-.189.869-1.029 1.053-1.385.194-2.435-.604.091.962.276 1.265-.63 1.523-.821.234-2.175-.627-2.589-1.288.349-.697 2.376-.463 3.009-.907zm6.55-1.504c.891.085-.182 2.714-1.46.164a7.242 7.242 0 011.46-.164zm4.584-.508c1.405-.286 6.095-1.622 6.617.565.093-.054.442-1.29.604-1.138.649.603.722 1.404.672 2.242-.784-1.634-.505-.199-1.037-.31-.139-.03-.352.229-.703.122-.461-.14-.791-1.12-1.083-1.453-.484.691-1.085 1.582-2.055 1.522-.687-.043-1.794-1.81-.905.125-.522-.172-1.126-.563-1.708-.485-.652.088-.99.73-1.601.835-1.354.229-1.558-1.073-2.437-1.78 1.212-.07 2.439 0 3.636-.245zm8.505-.02c.099-.45 1.329-.63 1.643-.488.764.347.481.806.341 1.568l-1.702-.805c.846 1.363-.688 1.56-.282-.276zm238.126 79.835c-.101-3.266-.196-6.589-1.024-9.769-.58-2.225-2.004-6.216-4.698-6.602-4.063-.583-6.313 7.443-7.451 10.198-.228-3.244-.029-6.696-1.255-9.775-.981-2.467-3.46-4.803-5.596-2.033-1.9 2.466-2.265 6.106-2.765 9.072-.648 3.845-1.037 7.718-1.511 11.585-1.855-3.584-2.18-7.687-3.646-11.412-1.384-3.516-3.562-6.873-5.66-9.999-1.713-2.555-3.798-4.956-6.481-6.517-2.337-1.359-6.422-2.828-8.648-.572-1.858 1.883-1.567 4.403-1.471 6.779.044 1.058.21 1.784-.722 2.317-.457.262-1.172.127-1.675.266-.81.227-1.431.61-2.116 1.119-4.805 3.569-7.02 10.001-7.705 15.736-.868 7.266 1.966 13.495 4.405 20.144.388 1.059 1.623 3.307 1.452 4.49-.187 1.295-1.814 1.329-2.912 1.356-3.317.082-6.784-.165-10.084-.474-7.857-.735-15.708-4.515-22.743-7.891-1.284-.616-3.1-.969-4.148-1.939-.985-.911-1.244-2.373-2.094-3.419-2.087-2.566-3.416-4.755-6.489-6.306-3.128-1.579-6.321-3.038-9.374-4.767-3.775-2.139-7.263-4.848-10.88-7.244-6.723-4.45-13.4-9.328-20.528-13.112-3.312-1.76-7.013-2.044-10.452-3.484-3.349-1.402-7.459-1.403-10.954-.518-1.702.432-2.86 1.454-4.426 2.122-1.834.782-3.331-.082-4.945-1.015-2.467-1.427-4.912-3.752-1.399-5.29 1.191-.523 2.684-.72 3.725-1.542 1.109-.875 2-2.489 2.903-3.585 2.005-2.436 3.203-5.24 6.139-6.755 3.246-1.676 7.095-2.132 10.556-3.227 3.75-1.186 7.423-2.596 11.103-3.98 6.632-2.495 13.525-5.19 18.291-10.681 4.109-4.738 5.901-10.854 5.735-17.065-.339-12.698-7.145-25.586-16.909-33.525C226.548 3.083 211.316-.164 196.192.006c-7.099.08-15.569 1.009-21.492 5.32-5.115 3.722-5.966 10.234-5.205 16.112.308 2.386 1.364 5.534-.319 7.636-.943 1.176-2.634 1.467-3.903 2.2-1.594.922-3 1.805-4.806 2.292-7.672 2.071-15.753 1.35-23.598 1.235-13.067-.19-26.461 3.345-36.208 12.548-7.872 7.432-10.233 21.445-.632 28.69 7.757 5.852 19.923 5.208 29.07 4.188 2.836-.318 4.786-.778 4.793 2.69.007 3.79-.621 7.749.346 11.468 1.523 5.858 7.155 5.997 12.133 4.736 2.627-.666 5.167-1.666 7.662-2.715 3.659-1.537 7.013-3.797 10.626-5.332 2.45-1.04 4.285 2.324 6.457-.008.402-.431.476-1.073 1.082-1.294.949-.345 2.541.866 3.373 1.25 1.247.572 2.503.994 3.001 2.376.466 1.291.262 3.346-.185 4.62-.969 2.771-3.58 2.224-5.964 2.038-4.157-.323-8.287-1.009-12.443-1.297-3.729-.258-7.22.855-10.436 2.694-6.756 3.859-12.282 9.999-18.139 15.048-3.015 2.599-5.929 5.406-9.207 7.668-1.425.985-2.969 1.889-4.207 3.112-1.23 1.213-1.365 2.315-1.785 3.93-.749 2.873-4.467 4.278-6.791 5.794-3.287 2.145-6.772 3.657-10.457 4.973-7.802 2.786-15.667 4.731-23.825 6.169-3.995.704-7.955 1.167-11.988 1.547-3.477.327-7.174 1.398-10.646.543 1-1.622 2.772-2.595 4.153-3.848 1.779-1.616 3.292-3.53 4.639-5.514 2.62-3.862 4.46-8.006 4.882-12.691.38-4.217-.056-9.26-2.601-12.822-.88-1.231-2.62-1.565-3.406-2.674-.782-1.101-.484-2.998-.912-4.282-1.09-3.268-4.327-7.317-7.175-9.214-3.09-2.06-7.61-2.816-11.18-1.743-6.612 1.988-10.674 9.051-13.7 14.76-1.653-3.476 1.115-8.634-2.114-11.481-2.724-2.402-4.885 2.251-5.796 4.241-4.276 9.343-5.248 19.252-7.039 29.249-.73-.72-.356-2.566-.287-3.424.128-1.597.116-3.164.119-4.768.009-4.052.762-8.122.417-12.171-.2-2.34-.946-7.275-4.348-6.497-2.885.659-4.692 4.714-5.598 7.193-1.308 3.576-1.61 7.116-1.528 10.893.09 4.173-.706 8.278-.899 12.446-.374 8.096-.004 16.121 2.32 23.934C6.25 174.618 15 185.248 26.679 191.667c6.434 3.537 13.571 5.775 20.91 6.256 3.977.261 7.816-.212 11.759-.623 3.89-.406 7.802-.594 11.686-1.069 8.65-1.061 17.079-3.798 24.941-7.481 4.139-1.939 8.031-4.319 12.102-6.387 1.634-.828 2.737-1.866 4.131-3.019 1.382-1.143 1.764-1.233 3.336-1.233-.461-1.232.885-1.612 1.484-2.393l-.101 1.135c.456-.99.881-.98 1.274.029.389-1.13.677-2.291 1.146-3.392 1.794.907 1.643 3.065 4.043 1.49 1.976-1.297 3.793-2.826 5.807-4.097 4.589-2.895 8.546-6.662 13.147-9.524 0 2.788.197 5.599-.176 8.372-.354 2.637-1.339 5.102-2.123 7.626-1.444 4.658-1.544 9.635-3.145 14.245-.662 1.91-2.387 3.507-2.882 5.365-.504 1.897.66 3.416-1.292 4.661-1.377.878-3.097 1.249-4.622 1.779-2.325.811-4.532 1.954-6.796 2.923-10.617 4.547-20.972 9.178-30.809 15.292-9.335 5.801-18.812 11.793-27.387 18.683-7.443 5.98-14.966 13.712-16.777 23.467-1.758 9.462 2.926 19.619 12.33 22.735 4.89 1.62 10.419 1.42 15.511 1.49 5.48.075 11.287-1.245 16.674-2.2 5.69-1.008 11.282-2.587 16.988-3.488 5.475-.864 10.496-2.796 15.882-3.986 5.735-1.268 11.618-1.956 17.386-3.096 2.596-.514 5.14-1.272 7.744-1.747 2.85-.52 5.732-.716 8.554-1.405 5.475-1.337 10.717-3.493 16.216-4.737 2.472-.56 4.907-1.309 7.38-1.832 2.277-.481 4.051-1.761 6.333-.71 1.843.849 3.314 2.304 5.059 3.318 2.262 1.315 4.648 2.493 7.008 3.624 4.74 2.274 9.657 3.845 14.613 5.552 5.207 1.794 10.32 3.838 15.714 5.023 5.529 1.213 11.171 1.551 16.739 2.512 11.403 1.966 22.709 2.848 34.284 2.92 5.851.036 11.701-.657 17.538-.575 5.167.073 9.66 1.237 14.385-1.509 7.55-4.387 16.307-10.996 16.122-20.595-.169-8.694-5.387-17-10.28-23.857-5.944-8.328-14.418-14.192-22.723-19.936-8.851-6.122-18.794-10.351-28.097-15.695-4.757-2.733-9.145-5.673-14.311-7.615-2.467-.927-4.872-2.001-7.31-2.999-1.961-.803-4.792-1.247-6.471-2.579-1.047-.832-1.148-2.09-1.424-3.326-.613-2.735-1.575-5.329-2.508-7.967-1.801-5.093-2.998-10.281-3.772-15.623-.738-5.092-2.376-10.388-1.528-15.563 5.58 5.395 11.313 10.58 17.022 15.832 2.14 1.968 4.239 3.977 6.39 5.933 1.615 1.469 3.634 3.65 5.884 4.086 2.875.557 1.825-2.621 3.798-3.114 1.206-.3 4.844 2.763 5.798 3.368 6.044 3.836 12.737 6.266 19.386 8.877 6.971 2.737 14.14 5.169 21.642 5.858 6.929.638 14.014-.18 20.701-2.067 13.316-3.758 23.115-12.673 30.306-24.23 8.195-13.17 14.157-28.596 13.675-44.317z" fill="#000"></path>
    <path fill-rule="evenodd" clip-rule="evenodd" d="M171.453 91.423l-.023.047c.025-.017.033-.033.023-.047z" fill="#000"></path>
    <path fill-rule="evenodd" clip-rule="evenodd" d="M172.096 91.593a4.7 4.7 0 00-.323-1.232c-.441.698-.836.998-.256 1.737l.579-.505zm30.707 99.837c.494-.525-.37-.722-.698-.729.033.562-.246 1.911.525 2.172a1.534 1.534 0 01.173-1.443zM189.794 81.692c-.847 1.636 1.025 2.143 2.109 1.353.815-.594 1.298-2.109 1.432-3.08.433-3.144-1.768-6.137-2.866-8.927-.283-.721-.672-3.194-1.585-3.262-1.05-.078-1.127 2.2-1.141 2.787-.04 1.772.429 3.578.979 5.25.593 1.804 2.062 3.969 1.072 5.88zm4.031-6.56c3.258 2.899 5.863-1.93 5.636-4.786-.056-.707-.535-3.317-1.878-2.367-.674.477-.099 2.027-.421 2.708-1.558 3.3-3.058-1.819-4.107-2.22-1.276-.49-1.405 1.186-1.403 2.082.003 1.779.85 3.405 2.173 4.583zm-11.824.45c.767-1.207 1.711-2.827 1.815-4.274.161-2.249-1.149-2.061-2.229-.492-.762 1.108-1.333 2.988-3.016 2.521-2.078-.576-1.443-3.368-2.606-4.695-2.936 3.943 2.621 12.314 6.036 6.94zm4.401 12.065c1.215.262 4.382.166 3.284-1.693-1.383-2.341-5.985 1.11-3.284 1.693zm42.552-69.827c.222-.66-.083-.781-.614-1.302-.503.463.141.95.614 1.303zm22.654 119.865c.801.128 1.059-.296.773-1.271-1.265-.081-1.522.342-.773 1.271zm-43.757-102.25c.884.404.546 1.232.53 1.933.456-.495 1.376-1.4 1.001-2.11-.577-1.094-2.084-.076-1.531.177zM177.745 21.65l-.404-.788c-.549.44-1.396 1.604-.524 2.171.357-.434.667-.895.928-1.383zm10.605 7.727c1.101.862.573-1.784.54-2-.164.31-1.096 1.564-.54 2zm-.609-1.344a919.56 919.56 0 01-.252-.656c-.447.413-.993 1.255-.256 1.738.202-.338.371-.699.508-1.082zm6.984 9.086l.27.249c.363-.732-.05-1.28-.736-1.303.049.41.204.761.466 1.054zm-29.468 82.273a7.107 7.107 0 001.189-1.016c-1.291-.789-.518.921-2.072-.129-.334.463.212 1.498.883 1.145zm54.253 71.743c.492-.753.58-.731-.091-1.303-.56.931-.502.692.091 1.303zM116.903 71.282l.802.835c.125-.364.805-1.395.343-1.737l-1.145.902zm9.506 2.756c-.426-.071-1.447-.382-1.683.015.624.512 2.033.044 1.683-.015z" fill="#000"></path>
  </symbol>
  <symbol fill="none" xmlns="http://www.w3.org/2000/svg" viewBox="0 0 70 70" id="img-03">
    <g clip-path="url(#clip0)">
      <path d="M35 70c19.33 0 35-15.67 35-35S54.33 0 35 0 0 15.67 0 35s15.67 35 35 35z" fill="#3C5A9A"></path>
      <path d="M46.38 10.743h-7.753c-4.601 0-9.719 1.935-9.719 8.605.023 2.324 0 4.55 0 7.054h-5.323v8.47h5.488v24.385h10.084V34.71h6.655l.602-8.333h-7.431s.017-3.707 0-4.783c0-2.636 2.742-2.485 2.907-2.485 1.305 0 3.843.004 4.494 0v-8.367h-.004z" fill="#fff"></path>
    </g>
    <defs>
      <clipPath id="clip0">
        <path fill="#fff" d="M0 0h70v70H0z"></path>
      </clipPath>
    </defs>
  </symbol>
  <symbol fill="none" xmlns="http://www.w3.org/2000/svg" viewBox="0 0 70 70" id="social-01">
    <path fill-rule="evenodd" clip-rule="evenodd" d="M0 34.895C0 15.623 15.653 0 34.961 0 54.27 0 69.923 15.623 69.923 34.895c0 19.272-15.653 34.895-34.962 34.895C15.653 69.79 0 54.167 0 34.895z" fill="#D34836"></path>
    <path fill-rule="evenodd" clip-rule="evenodd" d="M68.836 26.863H60.57v9.168h-3.897v-9.168H47.58v-3.817h9.093v-9.088h3.897v9.088h6.942a34.597 34.597 0 011.325 3.817z" fill="#fff"></path>
    <path fill-rule="evenodd" clip-rule="evenodd" d="M9.604 57.478c.978-1.64 2.494-3.254 4.74-4.58 5.066-3.098 11.89-3.508 15.58-3.741-1.142-1.462-2.46-3.011-2.46-5.555 0-1.373.41-2.192.82-3.157-.907.088-1.786.176-2.606.176-8.64 0-13.531-6.431-13.531-12.775 0-3.741 1.728-7.898 5.213-10.906 4.657-3.821 10.192-4.473 14.585-4.473h16.782l-5.213 2.926h-5.037c1.874 1.547 5.77 4.8 5.77 10.992 0 6.021-3.427 8.857-6.825 11.546-1.083 1.053-2.284 2.193-2.284 3.976s1.2 2.777 2.108 3.508l2.93 2.28c3.602 2.982 6.853 5.759 6.853 11.371 0 3.702-1.73 7.417-5.103 10.268a35.268 35.268 0 01-5.572.456c3.424-1.5 5.198-4.242 5.198-7.537 0-4.151-2.665-6.344-8.874-10.758-.645-.058-1.055-.058-1.875-.058-.732 0-5.125.146-8.552 1.286-1.787.643-7 2.602-7 8.39 0 .629.067 1.239.198 1.826-8.587-6.358-4.867-5.461-5.845-5.461zm27.467-27.352c0-5.875-3.485-14.975-10.251-14.975-2.109 0-4.393 1.058-5.711 2.686-1.377 1.707-1.787 3.9-1.787 6.004 0 5.467 3.163 14.5 10.193 14.5 2.02 0 4.217-.994 5.535-2.28 1.874-1.871 2.02-4.473 2.02-5.935z" fill="#fff"></path>
    <path fill-rule="evenodd" clip-rule="evenodd" d="M70 35.105C70 54.377 54.347 70 35.039 70a34.845 34.845 0 01-19.363-5.836L55.736 6.98C64.386 13.331 70 23.564 70 35.105z" fill="#000" fill-opacity=".08"></path>
  </symbol>
  <symbol fill="none" xmlns="http://www.w3.org/2000/svg" viewBox="0 0 375 288" id="social-02">
    <path fill-rule="evenodd" clip-rule="evenodd" d="M115.324 111.057c1.97-9.058 3.827-18.313 6.751-27.018 1.83-5.447 3.769-10.845 5.711-16.237.269-.749.383-1.47.907-1.844.7-.497 2.148-.486 2.937-.658 11.218-2.432 22.552-4.288 33.923-5.333 12.977-1.192 25.628-.646 38.468 1.854 10.981 2.138 21.854 5.085 32.608 8.459 1.581.496 3.159 1.002 4.735 1.523.734.243 1.952.366 2.592.873 1.368 1.082 1.832 5.517 2.345 7.396.686 2.519 1.087 5.978 2.41 8.12 1.972 3.19 4.973 5.956 7.416 8.608 8.529 9.252 17.878 17.693 28.892 22.267 17.04 7.077 35.008 11.513 52.66 15.898l1.233.305a213935.26 213935.26 0 00-21.437 28.065c-1.325 1.734-1.18 2.044-3.053 1.561-9.386-2.421-18.756-5.061-27.972-8.279-4.518-1.577-9.113-3.214-13.317-5.769-5.786-3.515-11.216-7.862-16.501-12.326-4.725-3.99-9.339-8.165-13.87-12.458-.893-.846-4.116-4.926-5.161-4.66-.901.229-2.462 2.654-3.122 3.361a678.222 678.222 0 01-5.263 5.573c-2.807 2.935-5.674 6.529-8.953 8.738-3.456 2.328-7.416 3.914-11.063 5.768a2328.32 2328.32 0 01-6.107 3.092c-.532.268-1.274.851-1.848.865-1.698.043-4.163-1.588-5.737-2.224a240.45 240.45 0 01-12.034-5.23c-8.485-3.975-17.81-8.293-24.793-15.446-1.218-1.247-2.409-2.644-3.215-4.311-.28-.578-.695-1.382-.724-2.065-.046-1.088.472-1.301 1.241-1.982 3.972-3.509 8.255-6.568 12.467-9.653a387.99 387.99 0 012.976-2.16l-49.213 4.672-6.889.655z" fill="#FF7A00"></path>
    <path fill-rule="evenodd" clip-rule="evenodd" d="M188.606.27c5.2.28 10.53.566 15.684 1.432 5.138.861 9.932 3.066 14.576 5.737 8.373 4.814 16.93 10.666 22.315 19.926 2.518 4.33 4.572 8.863 8.047 12.27.813.798 1.699 1.756 2.778 2 .858.194 1.615-.217 2.455-.266 1.604-.094 2.211.905 2.211 2.789 1.204-.568 2.514-1.082 3.827-.874 1.097.175 1.97.958 3.024 1.286 1.901.594 3.762-.294 5.57-.955 4.567-1.67 9.584-2.936 14.382-2.34 3.161.393 6.991 2.013 5.354 6.826-1.357 3.993-6.432 6.014-9.638 7.007-2.727.845-6.393.091-6.163 4.54.161 3.104.559 6.434 3.35 7.442 1.53.552 6.952 1.375 3.786 4.177-2.338 2.068-3.155 5.71-4.933 8.445-2.267 3.485-5.34 6.303-8.932 7.575-4.02 1.424-8.273 1.15-12.402 1.703 2.908 4.745 7.107 8.008 10.929 11.616 4.018 3.794 7.895 7.94 12.546 10.644 4.169 2.424 8.672 4.107 12.978 6.163 4.522 2.158 9.075 4.292 13.743 5.974 9.415 3.392 19.318 5.762 28.998 7.843 4.777 1.027 9.46.876 14.285.968 4.95.094 9.896 1.12 14.755 2.173 2.355.512 4.733.834 7.088 1.343 1.13.244 5.604.783 5.765 2.74.259 3.187-2.655 4.973-4.79 5.862-.912.38-2.381.324-3.17.847-.855.565-.521 1.396-.619 2.489-.142 1.59-.862 2.733-1.964 3.614-.907.726-2 .697-1.375 2.071.288.633 1.01 1.032 1.342 1.7.38.762.555 1.597.478 2.474-.135 1.536-.993 2.707-2.19 3.25-1.912.868-4.157.254-6.116-.028-3.278-.471-6.604-.519-9.838-1.366-3.373-.884-6.654-2.247-10.03-3.152-1.731-.464-3.466-.853-5.157-1.497-1.101-.418-2.692-1.506-3.865-1.165-1.098.319-1.956 1.886-2.674 2.796-.991 1.256-1.95 2.545-2.957 3.783a34.718 34.718 0 01-2.08 2.366c-.237.242-1.7 1.299-1.72 1.583-.057.802 1.539.788 1.881 1.107 1.988 1.857-.998 3.032-2.287 2.939-2.97-.215-5.955-.645-8.897-1.161-7.004-1.229-13.989-2.555-20.686-5.328-6.624-2.744-13.088-5.662-19.214-9.752-5.882-3.924-11.57-8.362-17.125-12.897-2.695-2.201-5.409-4.482-7.685-7.286-2.226-2.742-4.041-5.891-5.887-8.989-4.42 5.047-8.674 10.355-13.423 14.982-4.517 4.401-9.947 6.753-15.201 9.611.171 1.299 5.306 2.077 6.244 2.415 4.283 1.54 8.394 4.013 12.56 5.952 6.931 3.226 13.507 7.424 15.815 16.383 2.269 8.809-.363 17.676-3.573 25.633-3.789 9.394-8.289 18.095-13.73 26.284-2.314 3.484-4.808 6.691-7.347 9.935-2.167 2.769-4.025 6.047-3.117 9.982 1.744-.644 2.064.964.923 2.326-1.013 1.21-2.764 1.445-4.118 1.645-4.101.608-8.339.394-12.445-.058-7.477-.824-14.971-3.055-21.741-6.894-3.368-1.909-4.586 1.17-6.903 3.555-1.822 1.877-4.331 3.093-5.716 5.521-1.14 1.997-.396 5.153 1.971 4.405 1.841-.583 3.32-3.011 5.271-3.105 3.461-.166-3.07 5.673-3.906 6.386 1.655 1.749 3.531-.65 5.199-1.05 1.6-.384 2.047.595 1.194 2.172-.665 1.229-2.753 2.1-1.364 3.595 1.151 1.239 3.702 1.891 5.115 2.434a68.758 68.758 0 0013.383 3.673c1.482.25 3.857.09 5.059 1.332 1.584 1.638.82 4.353.018 6.23-3.038 7.108-9.355 10.602-15.843 11.114-3.996.315-8.029.01-12.038.265-4.392.279-8.794.694-13.197.523-7.077-.276-11.58-6.323-15.108-12.973-2.242-4.226-4.308-8.573-6.249-13.001-.758-1.729-2.345-3.521-2.615-5.465-.244-1.749.7-3.152 1.618-4.391 2.414-3.257 5.319-5.743 8.157-8.435 1.62-1.537 2.243-2.81 2.965-5.046.607-1.883 1.775-2.688 2.803-4.191 1.131-1.652.776-1.945-.106-3.295-.923-1.415-.56-3.498-.173-5.099.556-2.296 1.749-2.801 3.53-3.541 1.624-.674 3.001-1.858 4.441-2.956 7.113-5.422 13.816-11.558 21.017-16.829 7.105-5.201 14.53-9.795 21.31-15.598-5.506-.875-10.36-4.39-15.554-6.471-2.666-1.068-5.306-2.209-7.885-3.546-.985-.51-2.132-.964-3.011-1.715-.883-.754-1.561-1.746-2.487-2.46-2.196-1.694-4.806-2.658-7.168-3.978-2.55-1.426-5.067-2.985-7.437-4.799-2.212-1.694-4.336-3.631-6.176-5.868-1.466-1.783-2.891-4.106-4.965-4.925.217 3.416 3.797 6.244 5.758 8.3 3.184 3.335 6.493 6.17 10.051 8.925-3.991 4.042-8.855 6.674-13.529 9.404-5.255 3.07-10.363 6.472-15.596 9.59-4.434 2.64-9.098 4.675-13.605 7.129-4.862 2.647-9.866 4.867-14.939 6.881-4.59 1.822-8.913 3.766-13.245 6.324-4.21 2.487-8.716 4.389-13.221 5.986-5.061 1.793-9.89 3.499-14.758 5.958-4.39 2.216-8.797 3.633-13.443 4.839-1.534.398-3.505 1.128-4.58-.628-.814-1.331-.936-3.383-1.17-4.949-.896-5.99-.967-12.075-1.772-18.075-3.058 1.091-5.955 2.433-9.18 2.606-2.028.109-3.26.356-3.766 2.973 1.173.157 5.365.226 5.478 2.19.103 1.772-2.434 1.79-3.333 1.839-1.61.086-3.069-.226-3.928 1.637 1.266.552 4.072-.455 4.633 1.557.722 2.596-2.557 2.589-3.737 2.799-2.059.364-1.848 2.275-1.706 4.318.185 2.688.326 5.379.633 8.054.656 5.714 1.78 11.341 2.312 17.076.46 4.959.718 9.722-2.28 13.674-1.206 1.589-2.882 3.418-4.777 3.607-1.922.191-1.887-1.4-3.084-2.572-.734-.718-1.705-.865-2.57-1.252-1.05-.471-2.07-1.16-3.014-1.875a18.329 18.329 0 01-4.492-4.915c-4.812-7.687-6.533-19.171-7.01-28.49-.303-5.927 0-11.861.46-17.764.248-3.179.497-6.36.822-9.53.101-.982.27-1.966.332-2.951.036-.564-.194-1.704.05-2.244-.311.689-.862.179-1.41-.364-1.129-1.121-.781-3.275-.177-4.749 1.82-4.444 7.275-4.616 10.824-4.962 9.54-.929 18.602-3.953 27.735-7.182-1.289-2.282.739-3.788 2.31-4.572 2.423-1.209 4.926-2.272 7.372-3.426 5.523-2.608 10.932-5.039 16.715-6.703 5.24-1.507 10.309-4.009 15.478-5.842 5.34-1.895 10.585-4.061 15.837-6.268 10.404-4.371 20.817-8.837 30.914-14.139 2.552-1.34 4.99-2.894 7.453-4.445 2.001-1.259 4.349-2.182 6.046-4.002 1.619-1.737 2.589-4.152 4.35-5.73 1.585-1.421 3.754-1.44 5.068-3.205 1.776-2.385 3.896-3.434 6.308-4.833.774-.449 5.874-2.72 5.77-4.009-3.644 0-7.385 1.282-10.989 1.879-3.812.631-7.62 1.333-11.46 1.682-6.222.565-12.441.412-18.636-.385-.926-.119-4.64-1.02-5.28.154-.488.894.725 1.959.737 2.92.018 1.411-.944 2.167-2.032 1.677-2.121-.953-1.81-4.992-1.612-7.041.379-3.92 1.222-7.805 1.959-11.646-4.374 2.632-8.527 6.011-12.294 9.724-2.917 2.876-5.552 6.776-8.976 8.827-3.287 1.969-5.242.289-5.107-4.046.062-1.987.403-3.872.985-5.722.275-.874 1.404-3.348.875-4.279-3.005 2.832-5.989 5.671-9.143 8.271-2.23 1.838-5.462 4.704-8.372 3.975-2.57-.644-2.32-3.988-1.504-6.241.706-1.955 1.976-3.69 3.235-5.183 1.041-1.233 2.52-2.339 3.042-4.049-3.453 1.835-7.008 3.223-10.625 4.512-2.572.916-4.37 4.723-7.361 4.16-2.995-.563-1.802-4.937-.607-6.839.836-1.33 1.993-2.502 3.116-3.485 1.094-.96 2.759-1.796 3.297-3.392-3.498.776-7.015 2.126-10.614 1.877-2.138-.148-5.706-1.251-5.284-4.648.428-3.44 4.302-3.703 6.48-4.345 2.97-.875 5.813-2.517 8.68-3.77 5.782-2.527 11.677-4.554 17.593-6.569l1.869-.636c6.677-2.275 13.393-4.213 20.154-6.103 3.341-.934 6.671-1.953 10.039-2.75 3.258-.772 6.568-1.218 9.802-2.14-2.725-4.862.574-8.858 4.138-11.172-2.26-.54-4.558-.865-6.799-1.52-1.913-.559-3.757-1.418-5.685-1.913-3.312-.85-6.62-1.297-9.448-3.721-5.344-4.583-5.798-11.875-1.296-17.393 4.544-5.57 11.214-8.177 17.633-8.436 7.184-.29 15.358 1.356 22.081 4.363 3.302 1.477 6.74 3.356 9.571 5.872 1.926 1.71 4.971 4.99 7.555 4.99-3.095-4.426-6.894-9.002-7.453-14.996-.53-5.674 1.648-11.706 5.301-15.376C167.609-.877 179.656-.213 188.606.27zm-41.62 243.208c-1.906 3.504-4.541 6.348-7.029 9.256-.858 1.002-2.581 2.278-2.664 3.849-.067 1.283 1.264 2.725 1.845 3.733 3.074 5.33 5.605 11.217 9.36 15.951 4.243 5.35 9.087 6.39 15.096 6.405 6.673.017 13.434 1.004 20.095.588 5.642-.352 11.204-3.322 14.01-9.359-1.828-1.114-4.429-.583-6.41-.558-2.701.033-5.338-.024-8.007-.58-2.418-.503-4.809-1.258-7.084-2.361-1.177-.57-2.341-1.223-3.425-2.016-.794-.579-1.39-1.468-2.17-2.037-2.875-2.099-6.196 4.575-9.27 4.446-1.882-.078-1.201-2.267-.417-3.491 1.414-2.211 3.88-3.576 5.743-5.188-1.734-1.887-3.693.092-5.344 1.078-2.064 1.232-4.209 2.746-6.515 3.208.173-3.513 4.216-5.397 6.446-6.825.993-.637 2.237-1.227 2.481-2.625.184-1.052-.131-2.548-.224-3.61-.118-1.351-.206-1.782-1.422-2.163-1.475-.462-2.961-.328-4.438-.905-4.045-1.579-7.191-3.922-10.657-6.796zM15.547 188.111c-.988.324-1.985.604-2.989.854-1.985.495-3.973 1.009-5.965 1.459-1 .225-2.11.082-2.404 1.21-.151.578.23 1.616.295 2.216.118 1.083.125 2.181.136 3.271.104 10.046-1.672 20.034-.89 30.079.66 8.489 2.207 19.224 7.482 25.547 2.277 2.729 5.078 5.692 7.945 7.558 2.248 1.461 5.387-2.207 5.846-4.747.33-1.82-.22-3.74-.576-5.495-.458-2.248-.922-4.495-1.376-6.744-.968-4.8-1.849-9.646-2.127-14.581-.091-1.621-.072-3.183.006-4.798.042-.876.39-2.989-.128-3.74-.67-.971-2.203-.336-3.11-.253-.996.091-1.967.021-2.94-.279-2.314-.716-2.72-2.89-.193-3.898 1.765-.703 4.99.316 6.472-1.037 1.741-1.59-1.778-1.808-2.6-1.85-1.095-.055-4.725.284-4.54-2.128.138-1.787 3.263-1.906 4.356-1.982 2.336-.162 5.29.872 6.3-2.457.405-1.334-2.03-2.011-2.642-2.673-1.486-1.607-1.973-4.363-2.1-6.621-.126-2.22 1.723-9.917-1.094-10.121-.865-.062-2.303.927-3.164 1.21zm138.538 44.419c-1.657 2.334-3.09 4.89-4.634 7.329 3.621 2.362 7.325 4.262 11.07 6.292 1.702.925 2.896 1.657 4.544.256 1.182-1.005 2.069-2.432 3.222-3.477 1.659-1.501 3.391-2.877 5.091-4.307-5.015-2.164-10.108-4.062-15.122-6.231-1.876-.81-2.817-1.768-4.171.138zm-41.3-7.411c1.072 1.285-.993 4.847-1.399 6.066 3.325-.311 6.624-.932 9.89-1.729 1.112-.271.702 1.329.285 1.857-.514.653-1.543.851-2.231 1.084-2.532.858-5.128 1.27-7.726 1.728 1.189 1.729 4.049 4.434 3.128 7.034-1.661-1.692-2.856-3.944-4.694-5.407-.531.936-1.632 4.239-2.839 4.037-1.895-.318.025-4.178.421-5.107-1.276 0-6.072 1.324-6.741-.533-.684-1.9 3.943-1.838 4.799-2.287l-.16-.23-.16-.228c-.639-.912-1.254-1.811-1.34-3.062 1.431.582 2.386 3.233 3.959 3.271 1.491.037 2.156-2.612 2.688-3.866.302-.713 1.328-3.578 2.12-2.628zm161.364-24.984c3.206 3.198 1.028 9.645-1.398 12.544-2.718 3.248-8.771 6.231-12.216 2.921-1.886-1.812-1.205-4.576-.741-6.986.517-2.679.838-4.937 2.714-6.774 2.92-2.86 8.388-4.948 11.641-1.705zm-6.509 1.858c-3.128.786-6.298 4.481-7.041 8.289-.976 4.993 3.41 5.358 6.298 4.607 3.634-.943 7.495-4.093 7.68-9.034.16-4.264-4.506-4.473-6.937-3.862zM40.01 180.406c-4.684 2.061-9.087 4.881-14.002 6.103-1.5.374-2.116.782-2.486 2.434-.52 2.311-1.013 4.654-.641 7.07.77 5.014 6.673 4.4 9.951 4.203 1.683-.101 4.92.263 6.38-.979 1.067-.906.62-2.607.453-3.93-.621-4.948.057-9.956.346-14.901zm255.399-47.787c-1.725.385-4.707 2.046-2.234 4.13 1.65 1.389 4.105 1.557 6.043 1.901 3.786.67 7.827 1.249 11.112 3.773 6.087 4.678 5.342 13.505 3.521 20.729 1.311.913 5.163-5.056 5.889-6.027 2.943-3.938 5.898-7.864 8.866-11.776 1.27-1.673-9.142-7.454-10.077-7.974-4.946-2.751-9.563-4.562-15.11-5.034-2.631-.224-5.407-.302-8.01.278zm-21.474-14.641c-.472 1.408.356 2.047 1.116 3.02 4.253 5.439 7.248 13.136 9.616 19.888 1.181 3.367 2.008 6.762 2.739 10.289.718 3.461 2.996 4.386 5.727 5.368 6.289 2.264 12.909 3.021 19.22 5.256 1.691.599 2.023-3.795 2.129-4.91.302-3.171.022-6.481-1.388-9.276-2.665-5.283-8.007-6.407-12.772-7.307-2.725-.514-6.315-1.046-8.472-3.248-1.082-1.106-1.236-2.374-.391-3.747 1.539-2.505 4.249-2.827 6.67-3.031 1.18-.099 8.482.773 8.721-.248-3.636-1.401-7.368-2.325-10.951-3.926-2.794-1.25-5.611-2.43-8.431-3.599l-2.821-1.169c-2.868-1.189-5.494-2.635-8.245-4.066-1.034-.538-1.982-.737-2.467.706zm61.674 22.915c-.911 1.448-1.814 2.663-2.497 4.29-.796 1.897-2.118 3.107-3.222 4.737 5.736 1.196 11.209 2.716 16.736 4.908 2.837 1.125 5.768 1.681 8.671 2.487 2.435.676 5.03 1.725 7.551 1.105-2.872-4.678-10.53-3.385-12.547-9.05-1.372-3.854 2-6.929 4.758-7.597 4.816-1.169 9.95-1.259 14.841-1.675.052-2.212-17.705-3.358-19.461-3.537-3.117-.319-6.371-1.01-9.482-1.137-2.888-.119-3.832 3.06-5.348 5.469zm-67.758-16.181c-1.711 1.955-3.385 3.952-5.094 5.909-1.123 1.286-2.645 2.657-3.531 4.189-1.13 1.958.85 2.899 2.17 3.825 3.331 2.338 6.773 4.521 10.162 6.745 3.044 1.999 6.211 4.542 9.572 5.711 1.797.625 3.485 1.596 5.219 2.416-.836-8.873-5.146-16.932-9.12-24.329-.913-1.699-1.856-3.373-2.768-5.072-.46-.854-1.313-2.872-2.277-3.046-1.425-.258-3.47 2.665-4.333 3.652zm87.143 22.584c2.084 1.411 4.172 2.128 6.522 1.062a37.07 37.07 0 001.716-.884c-1.566-2.525-6.197-.986-8.238-.178zm-172.552-30.88c-3.693 1.969-7.644 3.93-10.855 6.899-1.186 1.096-3.835 3.399-3.215 5.488.53 1.788 3.463 3.311 4.855 3.856 7.327 2.867 15.665.781 22.41 6.042 1.826 1.424 2.421 3.285 3.777 5.157 1.226 1.693 2.779 1.483 4.427.78 2.164-.922 4.158-2.335 6.331-3.241 1.111-.463 2.999-.77 3.115-2.542.543-8.354-.965-18.997-7.194-24.109-6.993-5.737-16.64-2.066-23.651 1.67zm-3.961 19.468c-.178 1.059 6.753 2.977 7.506 3.222 4.185 1.363 8.095 4.603 12.431 5.126.753-1.987-5.252-5.152-6.201-5.56-4.334-1.86-9.184-2.198-13.736-2.788zm136.111-3.71c5.254 2.546 10.348 5.663 14.753 9.997 1.519 1.495 5.21-5.599 6.036-6.686-6.999-.344-13.896-1.923-20.789-3.311zm-98.215-49.898c-4.871 3.804-9.114 8.779-14.462 11.695 1.673.312 3.5-.97 5.099-1.419 1.556-.437 3.13-.726 4.645-1.345.931-.38 4.775-2.836 5.496-1.171 1.127 2.6-6.811 4.399-7.94 4.842a369.342 369.342 0 00-11.371 4.696c-3.653 1.578-7.305 3.277-11.081 4.41-3.835 1.152-7.901 1.448-11.588 3.236-3.26 1.581-6.062 4.198-9.207 6.045-3.154 1.852-6.738 2.997-9.457 5.753 2.956 3.729 6.452 6.852 10.277 9.23.612-5.688 6.251-8.926 10.109-11.112 8.41-4.765 21.04-11.952 29.612-3.876 6.265 5.902 7.114 17.102 7.114 25.87 1.697-.638 3.246-1.654 4.822-2.613 1.092-.665 1.105-2.516 1.242-3.752.225-2.024.688-3.984 1.22-5.926 1.176-4.295 2.648-8.485 4.051-12.682 2.271-6.787 5.07-13.482 6.465-20.623.911-4.66 1.995-12.67-2.758-14.984-4.112-2-8.949 1.118-12.288 3.726zm-21.274-18.97c-.794.63-.498 2.518-.444 3.465.197 3.444.074 6.903.171 10.354.119 4.204.145 11.914 3.812 14.272 2.509 1.612 5.628-.804 7.63-2.45 3.387-2.782 6.494-6.014 9.928-8.73 4.071-3.22 11.785-7.676 15.68-1.617 2.108 3.279 1.813 8.165 1.287 11.98-.694 5.033-2.316 9.807-3.927 14.511-3.328 9.713-6.801 19.584-8.652 29.866 4.22-2.965 7.501-7.238 11.183-10.991 2.73-2.782 6.784-5.977 7.414-10.511.142-1.024.981-1.754 1.557-2.439.751-.891 1.28-1.794 1.755-2.932 1.05-2.512 1.732-5.225 2.162-7.975.902-5.767.472-11.508-.36-17.241-.376-2.593.176-5.376-.335-7.903-.355-1.755-1.402-1.651-2.797-2.05-5.018-1.438-10.047-2.831-15.069-4.256-2.04-.578-4.258-1.664-6.376-1.628-1.738.03-3.198 1.255-4.699 2.143-2.463 1.457-6.378 4.006-9.207 2.557-3.296-1.689.545-5.5-1.108-7.304-1.133-1.237-4.52-.496-6.056-.803-.842-.168-2.777-.929-3.549-.317zm51.866 49.808c-2.397.447-3.785 1.676-5.106 4.088-1.341 2.451-1.501 3.665.412 5.583 2.063 2.068 4.222 4.112 6.412 5.975 2.776 2.361 5.855 4.148 8.599 6.567 1.202 1.06 6.656-7.246 7.602-8.384 1.305-1.572 2.645-3.147 4.046-4.594.511-.528 2.116-1.753 2.117-2.652.002-2.272-4.26-4.305-5.631-4.93-3.072-1.401-6.294-1.967-9.567-2.025-2.902-.052-6.01-.164-8.884.372zm10.681-9.994c-2.25 1.413-4.601 2.603-6.865 3.987-.804.49-5.869 3.006-5.614 4.509 5.701-.427 11.377-1.567 17.059-.262 2.552.586 4.984 1.568 7.117 3.381 1.615 1.372 2.846 4.008 4.45 1.662-3.274-2.194-6.223-5.101-9.126-7.924-1.271-1.235-2.578-2.398-3.868-3.6-.767-.714-2.033-2.455-3.153-1.753zM122.808 70.28c-1.783.295-3.521.854-5.273 1.334-7.095 1.942-14.217 3.687-21.293 5.742-14.115 4.1-28.652 8.055-42.11 14.624 1.131 1.479 4.13.408 5.534.118 2.75-.568 5.417-1.56 8.133-2.31 2.657-.731 5.323-1.605 8.001-2.215 1.234-.281 3.41-.651 3.46 1.535.07 3.1-5.024 5.418-6.894 6.55-1.999 1.212-3.934 2.55-5.838 3.96-1.504 1.114-4.28 2.598-4.767 4.812 4.883-2.446 9.768-4.88 14.62-7.409 1.828-.952 3.68-1.85 5.42-3.011 1.16-.775 2.654-2.134 4.028-2.256 1.86-.166 2.169 1.83 1.384 3.442-.98 2.017-3.004 3.155-4.493 4.566-1.898 1.8-3.578 3.923-5.287 5.96-1.418 1.691-3.245 3.356-3.986 5.643 2.55 1.008 5.448-2.224 7.322-3.822 2.945-2.51 5.688-5.241 8.497-7.954 1.437-1.388 3.15-3.635 5.042-4.05 2.397-.525 2.199 2.714 1.617 4.5-1.3 3.993-4.341 7.321-4.558 11.821-.134 2.771 1.851 1.716 3.175.605 2.23-1.872 3.74-4.724 5.764-6.87 4.875-5.17 10.454-9.58 16.484-12.643 1.079-.548 1.467-2.516 1.795-3.698.49-1.766 1.053-3.477 1.642-5.202 1.289-3.78 2.347-7.864 4.153-11.355.504-.973 1.804-1.965.729-2.538-.585-.31-1.697.02-2.301.12zm51.473-6.393c-1.827.252-3.675.229-5.505.457-2.987.372-1.684 4.667-2.165 7.255-1.417 7.618-8.247 9.056-13.423 5.463-2.912-2.023-4.66-4.921-6.226-8.312-.893-1.933-1.557-2.244-3.404-1.76-1.268.332-2.421.261-3.71.372-1.623.139-1.764.546-1.798 2.371-.029 1.621-.226 2.744-1.139 4.058-1.74 2.5-4.657 4.148-7.143 5.404-2.49 1.26-5.31 2.196-6.678 5.173-.689 1.501-1.428 3.293-1.628 4.999-.218 1.864.317 3.02-.602 4.74-1.911 3.574-2.787 7.48-3.754 11.543-.315 1.323-.439 1.867.783 2.231 1.753.522 4.243-.27 6.042-.354 1.284-.059 2.034-2.734 2.451-3.818.811-2.109 1.806-4.104 2.801-6.1 2.258-4.519 4.671-9.008 7.619-12.957 2.226-2.98 5.512-6.69 8.361-2.502 2.777 4.081 4.778 8.861 8.118 12.42 2.938 3.128 5.965 3.178 9.011.213 3-2.92 5.279-6.904 7.144-10.878 2.016-4.298 3.536-8.886 5.501-13.21.616-1.355 3.46-5.021 2.594-6.592-.586-1.06-2.429-.33-3.25-.216zm15.295-.937c-1.607.09-3.225-.124-4.833-.162-2.91-.069-5.343.052-6.804 3.348-1.29 2.91-2.389 6.004-3.566 8.983-2.557 6.47-5.066 13.093-8.991 18.599-3.479 4.878-7.972 7.336-12.497 2.676-2.006-2.067-3.53-4.733-4.97-7.353-1.154-2.1-2.471-5.798-4.405-7.023-2.156-1.365-4.624 1.767-5.942 3.466-2.215 2.858-4.067 6.218-5.846 9.462-1.29 2.354-2.525 4.757-3.779 7.137-.508.966-2.578 4.124-1.889 5.327.691 1.205 4.063.381 5.039.27 2.33-.262 4.656-.357 6.987-.594 7.25-.737 14.393-2.62 21.662-3.123 4.788-.332 9.506-1.426 14.219-2.42 4.582-.966 9.195-1.626 13.729-2.903 2.665-.751 5.336-1.503 7.997-2.282.92-.27 5.271-1.005 5.542-2.419-2.996-.618-4.57-1.992-5.632-5.448-1.331-4.328-1.485-9.151-1.599-13.712-.043-1.754-.05-3.509-.051-5.264v-2.106c-.001-1.259.459-3.543-.501-4.415-.888-.808-2.841-.103-3.87-.044zm59.481 27.949c.126 5.703-.737 11.45-2.718 16.661 2.072.392 4.538-2.682 6.277-3.712.67-.397 5.104-2.302 3.619-3.758-2.732-2.68-4.523-6.422-7.178-9.191zm59.44 4.637c.608 1.418-.143 3.218-.55 4.563 3.163.899 6.313 1.782 9.5 2.544 2.401.575 1.563 2.278-.521 2.161-2.9-.164-5.597-1.616-8.482-1.804-2.748-.18-3.072 2.657-5.415 3.203.08-1.561 1.147-2.644 1.915-3.816-1.265-.767-2.557-1.479-3.783-2.324-.636-.438-2.391-2.274-1.715-3.25.682-.984 2.471.861 3.108 1.267.905.578 2.711 1.851 3.776 1.486 1.458-.5 1.154-2.975 2.167-4.03zm-45.574-37.158c-1.283.105-2.679-.405-3.894.262-1.212.666-2.658 2.124-3.672 3.134-.981.979-1.469 2.167-2.688 2.745-1.219.577-2.467.526-2.937 2.288 1.105.358 3.275-.117 4.141.843 1.26 1.398-.938 2.936-1.849 3.377-1.308.63-2.377.426-3.713.307-.582-.051-.577-.263-1.053.078-1.767 1.263-.545 5.754.029 7.393 2.804 8.02 12.386 5.32 17.911 4.498-1.758-2.094-4.638-4.404-4.783-7.694-.043-.979.162-2.73 1.226-2.81.85-.066 1.871 1.453 2.401 2.052 1.569 1.774 3.601 4.716 5.871 4.97 3.036.341 5.371-5.47 6.63-8.005-1.547-.344-3.242-.323-4.142-2.118-1.069-2.133-1.088-5.4-1.069-7.802.016-2.044.567-4.28-1.745-4.381-2.129-.093-4.514.687-6.664.863zM59.116 63.622c-.442 1.14-2.364 1.587-3.207 1.892-3.21 1.159-6.343 2.63-9.471 4.074-6.317 2.915-12.564 6.135-18.331 10.418-1.078.801-.55-.744-.27-1.3.627-1.25 1.946-2.134 2.931-2.898 2.665-2.072 5.489-3.527 8.436-4.912 5.897-2.771 11.884-5.71 17.932-7.955.701-.26 2.575-.852 1.98.68zm73.254 5.647c-1.172.143-2.546-.172-3.673.28-1.469.59-1.227 1.783-1.662 3.25-.737 2.488-1.527 4.957-2.297 7.433 2.849-.157 5.578-2.823 7.993-4.358 1.366-.87 6.119-3.752 4.686-6.392-.908-1.671-3.745-.373-5.047-.213zm32.425-4.34c-1.764-.038-3.704.594-5.49.699-2.394.14-4.751.679-7.142.81-1.573.085-3.118.467-4.674.718 1.549 4.24 4.571 7.95 8.368 9.485 2.996 1.212 7.188 1.418 9.235-1.935 1.178-1.93 3.101-9.704-.297-9.777zm91.864-17.517c-1.924 1.511-3.466 3.676-5.073 5.608-4.025 4.837-8.19 10.017-9.933 16.648-.239.908 1.576 1.711 2.067 1.746 1.038.075 1.249-.545 1.657-1.581 1.008-2.568 1.395-5.436 3.008-7.625 1.966-2.669 4.334-5.271 6.616-7.564 1.551-1.558 5.352-3.752 5.797-6.328.528-3.045-2.974-1.818-4.139-.904zm-49.623 17.622c-1.088.374-1.175 1.564-1.423 2.846-1 5.152 9.114-.469 10.522-1.311-.469-1.654-5.078-1.353-6.145-1.418-.832-.05-2.15-.394-2.954-.117zm59.74 2.676c-1.499.068-.808-7.169.896-6.441 1.461.625.065 6.396-.896 6.44zM56.093 59.389c-2.295 2.341-5.898 2.655-8.75 3.407-4.205 1.108-8.372 2.52-12.543 3.793-2.633.804-1.15-1.114.168-1.834 2.267-1.24 4.834-1.9 7.257-2.582 2.623-.738 5.303-1.231 7.912-2.036 1.806-.558 4.135-1.985 5.956-.748zm71.391-50.33c2.55.554 5.096 1.519 7.331 3.098 1.851 1.308 1.777 3.342-.569 2.161-10.944-5.507-24.524-2.171-35.211 2.705-1.18.538-1.091-.635-.735-1.54.49-1.245 1.54-1.968 2.546-2.547 3.025-1.739 6.511-2.723 9.8-3.445 5.481-1.203 11.331-1.626 16.838-.431zm1.599-7.91c1.391.446 2.988 1.552 3.839 2.955.995 1.642.204 2.481-1.177 1.516-1.542-1.078-2.952-2.152-4.721-2.722-.934-.3-.896-.992-.225-1.6.628-.57 1.602-.368 2.284-.149z" fill="#000"></path>
  </symbol>
  <symbol fill="none" xmlns="http://www.w3.org/2000/svg" viewBox="0 0 70 70" id="social-03">
    <g clip-path="url(#clip0)">
      <path fill-rule="evenodd" clip-rule="evenodd" d="M35 70c19.33 0 35-15.67 35-35S54.33 0 35 0C20.623 0 8.272 8.668 2.885 21.063l9.13 5.433c.907.539 2.03.53 2.944 0 .759-.44 23.508-13.838 23.848-14.04a2.2 2.2 0 012.196-.027c.461.278 1.676.986 2.375 1.393l.081.048c.686.399.653 1.503.045 1.862-.333.199-8.423 4.968-15.9 9.376l-.005.002-.032.02c-6.203 3.655-11.974 7.057-12.535 7.39h.002c-1.018.6-2.025.613-3.076.007-1.563-.906-7.466-4.422-10.818-6.422a34.851 34.851 0 00-.897 4.751l11.772 6.812c.907.523 2.03.515 2.944 0 .759-.428 23.508-13.454 23.848-13.65a2.256 2.256 0 012.196-.027c.461.27 1.674.958 2.373 1.354h.002l.081.047c.686.388.653 1.462.045 1.811-.332.193-8.399 4.816-15.867 9.096l-.036.02-.006.004c-6.213 3.56-12.001 6.877-12.563 7.201h.002c-1.018.583-2.025.596-3.076.007-1.755-.989-8.974-5.172-11.92-6.884a34.98 34.98 0 00.991 6.813l10.986 6.357a2.98 2.98 0 002.944 0c.759-.428 23.507-13.455 23.848-13.65a2.256 2.256 0 012.196-.027c.461.27 1.675.958 2.374 1.354l.082.047c.686.388.653 1.462.044 1.81-.332.194-8.425 4.832-15.904 9.118-6.214 3.562-12.005 6.88-12.567 7.204h.002c-1.018.583-2.025.596-3.077.007-1.19-.672-4.902-2.816-8.083-4.66C9.687 62.294 21.444 70 35 70z" fill="#E44332"></path>
    </g>
    <defs>
      <clipPath id="clip0">
        <path fill="#fff" d="M0 0h70v70H0z"></path>
      </clipPath>
    </defs>
  </symbol>
  <symbol fill="none" xmlns="http://www.w3.org/2000/svg" viewBox="0 0 70 70" id="social-04">
    <path fill-rule="evenodd" clip-rule="evenodd" d="M0 35C0 15.67 15.67 0 35 0s35 15.67 35 35-15.67 35-35 35S0 54.33 0 35z" fill="#3D9AE8"></path>
    <path fill-rule="evenodd" clip-rule="evenodd" d="M47.128 44.93v1.967l-12.156 7.885-11.887-7.939V44.99l3.555 2.107.396.233.365-.28 7.68-5.892 7.677 5.893.368.281.397-.238 3.605-2.163z" fill="#fff"></path>
    <path fill-rule="evenodd" clip-rule="evenodd" d="M43.361 17.552l-8.28 6.944-8.094-6.944-12.394 8.073 8.535 6.492-8.535 6.494 8.492 5.03 3.902 2.31 8.094-6.21 8.092 6.21 3.955-2.373 8.279-4.968-7.906-6.775 7.906-6.587-12.045-7.696zm3.436 14.02L35 39.389l-11.724-7.386 11.83-7.148 11.69 6.717z" fill="#fff"></path>
    <path fill-rule="evenodd" clip-rule="evenodd" d="M70 35c0 19.33-15.67 35-35 35a34.837 34.837 0 01-19.384-5.853L55.72 6.789C64.38 13.161 70 23.424 70 35z" fill="#000" fill-opacity=".08"></path>
  </symbol>
  <symbol fill="none" xmlns="http://www.w3.org/2000/svg" viewBox="0 0 70 70" id="social-05">
    <path fill-rule="evenodd" clip-rule="evenodd" d="M70 35c0 19.33-15.67 35-35 35S0 54.33 0 35 15.67 0 35 0s35 15.67 35 35zM19.09 23.512a5 5 0 015-5h3.885a5 5 0 015 5v21.24a5 5 0 01-5 5h-3.884a5 5 0 01-5-5v-21.24zm24.092-5a5 5 0 00-5 5v9.67a5 5 0 005 5h3.884a5 5 0 005-5v-9.67a5 5 0 00-5-5h-3.884z" fill="#5D7FC7"></path>
  </symbol>
  <symbol fill="none" xmlns="http://www.w3.org/2000/svg" viewBox="0 0 70 70" id="social-06">
    <g clip-path="url(#clip0)">
      <path d="M30.668 40.305l3.175-11.484c.097-.321.288-.45.61-.45h2.566c.353 0 .514.129.61.45l3.273 11.548 2.854-9.367h-1.54c-.321 0-.482-.16-.482-.48v-1.67c0-.352.16-.48.482-.48h4.105c.546 0 .77.417.642.865L42.536 43.8c-.095.321-.288.45-.609.45h-2.886c-.321 0-.514-.129-.61-.48l-3.048-11.325L32.208 43.8c-.097.321-.29.45-.61.45h-2.887c-.32 0-.513-.129-.609-.45l-3.497-12.798h-1.667c-.322 0-.482-.16-.482-.48v-1.67c0-.352.16-.48.482-.48h4.202c.32 0 .513.128.61.48l2.918 11.453z" fill="#4D4D4D"></path>
      <path d="M51.17 60.305c-4-2.173-6.558-5.972-7.33-10.123-5.141 2.982-11.666 3.321-17.266.274-4.223-2.289-9.51-.724-11.804 3.5-2.295 4.223-.73 9.506 3.494 11.805 12.894 7.002 28.281 5.029 38.978-3.771-2.114-.126-4.196-.67-6.072-1.685z" fill="#24BAC9"></path>
      <path d="M62.011 12.775a14.401 14.401 0 01-1.724 6.03c-2.103 3.882-5.79 6.537-10.125 7.332 2.99 5.141 3.327 11.667.285 17.261-2.295 4.223-.729 9.512 3.493 11.81a8.71 8.71 0 0011.805-3.497c7-12.878 5.033-28.238-3.734-38.936z" fill="#F03955"></path>
      <path d="M9.67 51.187c2.111-3.883 5.794-6.534 10.127-7.334-2.986-5.14-3.326-11.66-.284-17.267 2.292-4.22.73-9.505-3.494-11.797a8.703 8.703 0 00-11.805 3.49C-2.788 31.16-.817 46.53 7.957 57.226c.124-2.058.67-4.119 1.712-6.038z" fill="#59B89C"></path>
      <path d="M51.696 4.231C38.8-2.777 23.414-.797 12.718 8c2.111.127 4.2.67 6.072 1.687 3.998 2.173 6.559 5.965 7.332 10.125 5.143-2.991 11.667-3.325 17.263-.283 4.224 2.293 9.51.73 11.805-3.494A8.7 8.7 0 0051.696 4.23z" fill="#F09502"></path>
    </g>
    <defs>
      <clipPath id="clip0">
        <path fill="#fff" d="M0 0h70v70H0z"></path>
      </clipPath>
    </defs>
  </symbol>
  <symbol fill="none" xmlns="http://www.w3.org/2000/svg" viewBox="0 0 70 70" id="social-07">
    <g clip-path="url(#clip0)">
      <path d="M54.65 44.846l14.996-5.098a35.32 35.32 0 00.326-4.776 34.886 34.886 0 00-10.429-24.92l-14.718 5.077 9.826 29.717z" fill="#E0A451"></path>
      <path d="M44.825 15.127L39.929.323A35.025 35.025 0 009.688 10.776l5.035 14.737 30.102-10.386z" fill="#76C5C9"></path>
      <path d="M44.825 15.127l14.718-5.077-.103-.102a37.317 37.317 0 00-.41-.394l-.188-.178a44.052 44.052 0 00-.4-.368l-.204-.184a25.927 25.927 0 00-.4-.349l-.215-.185a20.588 20.588 0 00-.4-.333l-.226-.186a31.584 31.584 0 00-.404-.321l-.232-.174c-.137-.106-.275-.21-.415-.315l-.231-.173-.457-.326-.205-.152a34.89 34.89 0 00-.644-.441c-.117-.078-.236-.153-.353-.232l-.314-.204c-.129-.082-.261-.162-.392-.245l-.27-.175a23.141 23.141 0 00-.416-.246l-.267-.152c-.152-.084-.292-.166-.438-.247l-.253-.14a33.404 33.404 0 00-.456-.245l-.24-.125c-.16-.082-.32-.163-.481-.243l-.22-.108c-.17-.083-.34-.165-.51-.245l-.199-.095a33.536 33.536 0 00-.548-.248l-.152-.062c-.2-.087-.4-.172-.608-.256l-.066-.027A34.734 34.734 0 0042.291.74l-.015-.007c-.25-.054-.504-.105-.76-.153h-.034a31.376 31.376 0 00-.761-.133h-.026a38.949 38.949 0 00-.78-.12l4.91 14.8z" fill="#657E41"></path>
      <path d="M24.796 54.996L29.78 69.59a35.028 35.028 0 0029.823-9.76L54.65 44.844 24.796 54.996z" fill="#CB2561"></path>
      <path d="M60.647 58.755l.152-.153c.182-.202.362-.405.54-.608l.085-.1c.147-.169.293-.34.437-.512.071-.085.141-.173.213-.26.099-.12.198-.242.295-.364.098-.122.152-.202.239-.304.087-.102.17-.22.254-.329.084-.11.166-.22.248-.332l.228-.304c.086-.118.17-.236.253-.355l.209-.304.255-.374.189-.285.259-.399.165-.263c.089-.141.178-.285.265-.428l.137-.23c.093-.151.187-.313.279-.473l.083-.152a34.878 34.878 0 001.64-3.276l.04-.093c.089-.203.175-.406.259-.609l.052-.126c.082-.203.162-.406.24-.609l.052-.134c.078-.203.154-.41.228-.62l.044-.122c.076-.214.15-.43.221-.645l.03-.092c.076-.228.148-.457.218-.688l.008-.026c.54-1.775.937-3.59 1.188-5.43l-14.995 5.099 4.955 14.986.06-.06c.13-.129.256-.26.384-.389l.189-.193c.132-.154.268-.3.402-.444z" fill="#B32231"></path>
      <path d="M14.722 25.51L.256 30.498a35.324 35.324 0 00-.284 4.474 34.889 34.889 0 0010.427 24.92l14.398-4.896L14.722 25.51z" fill="#45A98E"></path>
      <path d="M9.688 10.776l-.044.046a41.83 41.83 0 00-.414.441l-.132.143c-.144.159-.287.318-.428.478l-.105.119c-.154.176-.306.355-.457.536l-.062.073a35.38 35.38 0 00-1.958 2.587l-.041.06c-.136.203-.27.406-.404.61l-.096.151c-.112.174-.223.349-.333.525l-.12.198c-.099.162-.196.323-.294.487l-.132.228c-.09.153-.18.305-.266.466l-.139.251c-.082.15-.164.302-.245.457l-.14.269c-.076.147-.152.295-.227.444l-.14.283-.211.44-.133.282c-.067.145-.132.29-.197.436l-.134.305c-.063.145-.125.29-.184.437a26.069 26.069 0 00-.301.75l-.126.322c-.054.153-.108.293-.16.439-.04.11-.08.217-.118.327l-.152.441c-.037.111-.075.22-.111.332-.049.152-.095.304-.14.447l-.104.334c-.045.152-.088.304-.13.456-.033.111-.065.22-.095.332-.043.152-.084.315-.125.473l-.083.321c-.043.172-.083.346-.124.518-.021.094-.045.188-.067.283-.06.265-.116.532-.169.8-.016.082-.03.164-.045.247a24.62 24.62 0 00-.105.566l-.058.351a15.92 15.92 0 00-.075.468c-.02.127-.035.255-.053.381a32.37 32.37 0 00-.052.378l14.466-4.99-5.037-14.728z" fill="#298B75"></path>
      <path d="M24.796 54.996L10.399 59.89l.042.038c.166.163.332.323.5.481l.09.087c.174.162.349.323.524.48l.076.07c.19.169.381.336.574.502l.038.032a37.4 37.4 0 002.605 2.023l.1.07c.185.13.371.257.56.384l.179.119c.162.107.325.214.49.32l.23.15c.152.095.304.19.456.283l.253.152.438.256.275.152.425.234.294.152.415.217.304.152.407.2.325.151c.133.063.267.123.399.184l.34.153.377.162c.314.136.631.268.95.395l.135.053c.16.062.32.123.482.182l.271.102c.152.058.32.115.48.17l.28.1c.162.055.323.106.486.152l.283.091c.165.052.33.1.493.152l.28.083.506.141.272.073.52.132.26.063c.179.043.359.084.54.125l.238.052c.189.04.38.08.57.118l.2.038c.204.04.408.078.609.113l.113.018c.23.04.456.076.694.111l-4.981-14.563z" fill="#432344"></path>
    </g>
    <defs>
      <clipPath id="clip0">
        <path fill="#fff" d="M0 0h70v70H0z"></path>
      </clipPath>
    </defs>
  </symbol>
</svg>