<svg xmlns="http://www.w3.org/2000/svg" xmlns:xlink="http://www.w3.org/1999/xlink">
      <symbol width="70" height="70" viewBox="0 0 70 70" id="social-01">
         <g clip-path="url(#clip0)">
            <path
               d="M35 70.0001C54.33 70.0001 70 54.33 70 35.0001C70 15.6701 54.33 4.57764e-05 35 4.57764e-05C15.6701 4.57764e-05 3.8147e-05 15.6701 3.8147e-05 35.0001C3.8147e-05 54.33 15.6701 70.0001 35 70.0001Z"
               fill="#3C5A9A" />
            <path
               d="M46.3805 10.7432H38.6271C34.026 10.7432 28.9083 12.6783 28.9083 19.3478C28.9308 21.6717 28.9083 23.8973 28.9083 26.4021H23.5855V34.8724H29.073V59.2567H39.1567V34.7114H45.8123L46.4145 26.3784H38.983C38.983 26.3784 38.9996 22.6714 38.983 21.5949C38.983 18.9593 41.7254 19.1102 41.8904 19.1102C43.1954 19.1102 45.7329 19.114 46.3843 19.1102V10.7432H46.3805Z"
               fill="white" />
         </g>
      </symbol>
      <symbol width="70" height="70" viewBox="0 0 70 70" id="social-02">
         <g>
            <path fill-rule="evenodd" clip-rule="evenodd"
               d="M35 70C54.33 70 70 54.33 70 35C70 15.67 54.33 0 35 0C20.6235 0 8.27158 8.66784 2.88502 21.0626L12.0151 26.4961C12.9225 27.0347 14.0445 27.0257 14.9586 26.4961C15.7177 26.0562 38.4665 12.6576 38.8073 12.4556C39.4837 12.0563 40.317 12.0461 41.0027 12.4286C41.4644 12.707 42.6789 13.4147 43.3777 13.8219L43.4593 13.8695C44.1454 14.269 44.1122 15.3732 43.5036 15.7323C43.1712 15.9308 35.0814 20.6996 27.6036 25.1075L27.5986 25.1104L27.5667 25.1292C21.3645 28.7853 15.5931 32.1874 15.0316 32.5199H15.0338C14.0158 33.1191 13.0088 33.1326 11.9576 32.5266C10.3946 31.6206 4.49216 28.1053 1.14044 26.1045C0.735667 27.6494 0.433831 29.236 0.2427 30.8564L12.0151 37.6678C12.9225 38.1915 14.0445 38.1827 14.9586 37.6678C15.7177 37.2401 38.4665 24.2137 38.8073 24.0173C39.4837 23.6291 40.317 23.6192 41.0027 23.9911C41.4641 24.2615 42.6771 24.9488 43.3761 25.3448L43.3776 25.3456L43.4593 25.392C44.1454 25.7804 44.1122 26.8539 43.5036 27.203C43.1717 27.3957 35.1052 32.0187 27.6366 36.2989L27.6007 36.3195L27.5947 36.3229C21.3819 39.8834 15.5939 43.2005 15.0316 43.5242H15.0338C14.0158 44.1068 13.0088 44.1199 11.9576 43.5308C10.2035 42.5423 2.98401 38.3587 0.0380554 36.6469C0.146375 38.9854 0.484168 41.2638 1.02943 43.4604L12.0151 49.8166C12.9224 50.3402 14.0445 50.3315 14.9585 49.8166C15.7176 49.3889 38.4664 36.3624 38.8073 36.1661C39.4836 35.7779 40.317 35.7679 41.0027 36.1399C41.4643 36.4104 42.6783 37.0982 43.3771 37.4942L43.4593 37.5407C44.1453 37.9291 44.1121 39.0026 43.5035 39.3518C43.1711 39.5448 35.0782 44.1828 27.5992 48.469C21.3847 52.0306 15.594 55.3492 15.0316 55.673H15.0338C14.0157 56.2556 13.0088 56.2687 11.9575 55.6796C10.7665 55.0083 7.05548 52.864 3.87358 51.0206C9.68693 62.2926 21.4434 70 35 70Z"
               fill="#E44332" />
         </g>
      </symbol>
   </svg>