<svg width="166" height="149" viewBox="0 0 166 149" fill="none" xmlns="http://www.w3.org/2000/svg">
<ellipse cx="134.759" cy="30.7591" rx="18.5" ry="25" transform="rotate(135 134.759 30.7591)" fill="#4A4A4A"/>
<ellipse cx="134.759" cy="30.7591" rx="7.5" ry="10" transform="rotate(135 134.759 30.7591)" fill="#010101"/>
<ellipse rx="18.5" ry="25" transform="matrix(-0.707107 -0.707107 -0.707107 0.707107 30.7591 30.7592)" fill="#4A4A4A"/>
<ellipse rx="7.5" ry="10" transform="matrix(-0.707107 -0.707107 -0.707107 0.707107 30.7591 30.7592)" fill="#010101"/>
<circle cx="83" cy="79" r="70" fill="white"/>
<ellipse cx="50" cy="82.5" rx="15" ry="18.5" fill="#4A4A4A"/>
<ellipse cx="116" cy="82.5" rx="15" ry="18.5" fill="#4A4A4A"/>
<ellipse cx="83" cy="100.5" rx="7.5" ry="10" transform="rotate(90 83 100.5)" fill="#010101"/>
<circle cx="116" cy="79" r="7" fill="#010101"/>
<circle cx="50" cy="79" r="7" fill="#010101"/>
<circle cx="48" cy="76" r="3" fill="white"/>
<circle cx="114" cy="76" r="3" fill="white"/>
</svg>
